<svg xmlns="http://www.w3.org/2000/svg" width="58.027" height="141.842" viewBox="0 0 58.027 141.842"><g transform="translate(-98.307 -144.952)"><ellipse cx="10.566" cy="10.909" rx="10.566" ry="10.909" transform="translate(115.55 161.732) rotate(-28.663)" fill="#2f2e41"/><circle cx="8.707" cy="8.707" r="8.707" transform="translate(121.348 160.332)" fill="#ffb8b8"/><path d="M172.657,247.306l-1.12,3.167L173.184,260l6.787,5.639,5.39-8.334-2.595-7.885-1.946-2.2h0a1.439,1.439,0,0,0-1.294-1.571q-.055-.005-.111-.006l-4.251-.083A2.606,2.606,0,0,0,172.657,247.306Z" transform="translate(-47.271 -64.949)" fill="#ccc"/><path d="M225.573,503.171h4.346l.6-16.763h-4.948Z" transform="translate(-82.151 -220.413)" fill="#ffb8b8"/><path d="M236.608,535.469H222.949v-5.277h8.382a5.277,5.277,0,0,1,5.278,5.277Z" transform="translate(-80.458 -248.677)" fill="#2f2e41"/><path d="M139.69,503.171h4.346l2.067-16.763h-6.414Z" transform="translate(-26.713 -220.413)" fill="#ffb8b8"/><path d="M150.725,535.469H137.066v-5.277h8.382a5.278,5.278,0,0,1,5.278,5.277Z" transform="translate(-25.019 -248.677)" fill="#2f2e41"/><path d="M237.549,200.643a3.565,3.565,0,0,1,.834,5.4l3.595,7.31-3.91,3.268-4.931-10.394a3.584,3.584,0,0,1,4.412-5.585Z" transform="translate(-86.359 -35.607)" fill="#ffb8b8"/><path d="M158.825,290.124a52.435,52.435,0,0,1-6.334-.467,2.534,2.534,0,0,1-2.128-3.173l4.7-17.42-3.789-10.629a4.777,4.777,0,0,1,2.638-6l5.2-2.2,1.564,9.682,3.726,4.7a1.212,1.212,0,0,0,2.007-.163l2.83-5.072-2.312-9.32,3.446.408a5.983,5.983,0,0,1,4.932,3.983,15.972,15.972,0,0,1,.264,9.544l-1.428,5.074,2.508,16.208a3.3,3.3,0,0,1-2.756,3.769c-.052.008-.1.015-.157.021a33.183,33.183,0,0,1-4.828.2,3.165,3.165,0,0,1-2.971-2.58.452.452,0,0,0-.871,0q-.2.708-.44,1.577C164.249,289.666,161.823,290.124,158.825,290.124Z" transform="translate(-33.546 -67.849)" fill="#2f2e41"/><path d="M211.264,240.984a3.264,3.264,0,0,1-1.259-.248,3.1,3.1,0,0,1-1.85-2.247,3.747,3.747,0,0,1,1.931-4.022l10.155-5.514-.555-2.2a1.765,1.765,0,0,1,.682-1.82l2.619-1.945a1.68,1.68,0,0,1,1.418-.3,1.484,1.484,0,0,1,.985.817l1.361,2.937a5.344,5.344,0,0,1-2.141,6.657l-11.389,7.3A3.633,3.633,0,0,1,211.264,240.984Z" transform="translate(-70.864 -50.152)" fill="#2f2e41"/><path d="M143.7,399.961c-.035,0-.071,0-.106,0l-5.533-.222a1.6,1.6,0,0,1-1.493-1.692c0-.022,0-.044.005-.066l5.616-54.028,14.738-5.36,8.679,4.911,9.5,52.351a1.6,1.6,0,0,1-1.188,1.842l-.023.006-5.664-.139a1.6,1.6,0,0,1-1.877-1.073l-12.063-42.331a.532.532,0,0,0-1.024.048l-8.008,44.507A1.59,1.59,0,0,1,143.7,399.961Z" transform="translate(-24.697 -124.996)" fill="#2f2e41"/><path d="M165.278,188.626a3.488,3.488,0,1,0,6.229,1.659,4.5,4.5,0,0,0,3.966,5.068,5.222,5.222,0,0,0,5.283-4.04,6.231,6.231,0,0,0-2.654-6.3,7.756,7.756,0,0,0-6.956-.687A13.416,13.416,0,0,0,165.278,188.626Z" transform="translate(-42.828 -25.084)" fill="#2f2e41"/><path d="M132.945,155.8a27.835,27.835,0,0,0-4.7-7.62c-2.085-2.155-5.1-3.639-8.055-3.131s-5.5,3.49-4.845,6.416c.333,1.486-.94,2.959-2.407,3.368a7.908,7.908,0,0,1-4.48-.439,12.975,12.975,0,0,0-4.441-.955,6.361,6.361,0,0,0-5.708,6.071,7.936,7.936,0,0,0,4.754,7.209,10.634,10.634,0,0,0,8.864-.362,16.321,16.321,0,0,0,6.55-6.229,8.222,8.222,0,0,1,11.783-1.87,1.865,1.865,0,0,0,2.523-.2A1.958,1.958,0,0,0,132.945,155.8Z" transform="translate(0)" fill="#2f2e41"/><path d="M162.648,311.5l-.615-1.431c-2.159-5.142-3.6-8.5-2.329-11.269a4.338,4.338,0,0,1,5.714-2.232l.115.052a4.719,4.719,0,0,1,2.558,3.029,4.717,4.717,0,0,1,3.965-.033,4.338,4.338,0,0,1,2.2,5.728c-.017.038-.034.076-.053.114-1.273,2.771-4.758,3.863-10.065,5.576Z" transform="translate(-39.324 -97.633)" fill="#fbd45c"/><path d="M151.9,307.178a3.564,3.564,0,0,0-5.089-1.994l-6.372-4.786-1.538,4.379,6.585,5.487a3.584,3.584,0,0,0,6.415-3.086Z" transform="translate(-26.204 -100.342)" fill="#ffb8b8"/><path d="M139.13,281.722a1.483,1.483,0,0,1-.793-.23l-2.736-1.73a5.344,5.344,0,0,1-1.814-6.753L139.4,260.7a3.488,3.488,0,0,1,2.518-2.026,3.1,3.1,0,0,1,2.773.883,3.747,3.747,0,0,1,.56,4.427l-5.539,10.141,1.658,1.543a1.766,1.766,0,0,1,.414,1.9l-1.144,3.055a1.681,1.681,0,0,1-1.029,1.021A1.5,1.5,0,0,1,139.13,281.722Z" transform="translate(-22.57 -73.376)" fill="#2f2e41"/></g></svg>