<?xml version="1.0" encoding="utf-8"?>
<svg version="1.1" id="rescado" xmlns="http://www.w3.org/2000/svg" xmlns:xlink="http://www.w3.org/1999/xlink" x="0px" y="0px"
	 viewBox="0 0 896 896" style="enable-background:new 0 0 896 896;" xml:space="preserve">
<g id="paw">
	<path d="M534.35,424.69L534.35,424.69c-33.01-0.18-64.4,14.32-85.66,39.57c-21.13-25.42-52.6-39.97-85.66-39.57
		c-61.97,0-112.21,50.24-112.21,112.21c0,106.2,185.35,209.9,192.87,213.91c3.03,2.03,6.99,2.03,10.02,0
		c7.51-4.01,192.87-106.2,192.87-213.91C646.56,474.93,596.32,424.69,534.35,424.69z"/>
	<path d="M260.23,355.01c25.26,43.76,16.78,95.95-18.94,116.58s-85.17,1.88-110.43-41.88s6.38-107.53,42.11-128.16
		C208.69,280.92,234.97,311.25,260.23,355.01z"/>
	<path d="M436.08,249.92c5.05,57.7-29.05,107.82-76.16,111.94c-47.11,4.12-89.39-39.31-94.44-97.01
		c-5.05-57.7,40.63-119.4,87.74-123.52S431.03,192.22,436.08,249.92z"/>
	<path d="M630.42,265.99c-5.05,57.7-47.33,101.14-94.44,97.01c-47.11-4.12-81.21-54.24-76.16-111.94
		c5.05-57.7,35.75-112.72,82.86-108.59S635.47,208.29,630.42,265.99z"/>
	<path d="M765.15,429.7c-25.26,43.76-74.71,62.51-110.43,41.88c-35.73-20.63-44.21-72.82-18.94-116.58s51.54-74.09,87.27-53.46
		C758.77,322.17,790.41,385.94,765.15,429.7z"/>
</g>
</svg>
