<svg xmlns="http://www.w3.org/2000/svg" width="173.27" height="74.193" viewBox="0 0 173.27 74.193"><g transform="translate(-27.308 -0.002)"><path d="M305.354,377.161a14.859,14.859,0,0,0,14.349-2.527c5.026-4.219,6.6-11.166,7.883-17.6L331.378,338l-7.939,5.467c-5.71,3.931-11.548,7.989-15.5,13.683s-5.678,13.468-2.5,19.629" transform="translate(-276.354 -332.751)" fill="#fbd45c"/><path d="M309.684,442.272c-1-7.28-2.027-14.654-1.325-22.013a34.624,34.624,0,0,1,6.675-18.151,30.2,30.2,0,0,1,7.747-7.02c.775-.489,1.488.739.716,1.225a28.706,28.706,0,0,0-11.355,13.7c-2.472,6.287-2.869,13.142-2.443,19.821.257,4.039.8,8.052,1.354,12.06a.735.735,0,0,1-.5.873.714.714,0,0,1-.873-.5Z" transform="translate(-279.458 -373.493)" fill="#3f3d56"/><path d="M338.835,490.26a10.938,10.938,0,0,0,9.531,4.921c4.826-.229,8.848-3.6,12.468-6.793l10.709-9.456-7.088-.339c-5.1-.244-10.326-.473-15.18,1.1s-9.332,5.355-10.22,10.38" transform="translate(-301.417 -433.163)" fill="#fbd45c"/><path d="M303.441,520.535c4.811-8.512,10.391-17.973,20.361-21a22.721,22.721,0,0,1,8.564-.884c.909.079.682,1.48-.225,1.4a21.108,21.108,0,0,0-13.667,3.616,35.523,35.523,0,0,0-9.394,10.137c-1.556,2.369-2.949,4.838-4.342,7.3C304.293,521.9,302.991,521.332,303.441,520.535Z" transform="translate(-276.04 -447.571)" fill="#3f3d56"/><path d="M468.214,491.9a6.413,6.413,0,0,0,6.193-1.091c2.169-1.821,2.849-4.819,3.4-7.6L479.446,475l-3.427,2.359c-2.464,1.7-4.984,3.448-6.69,5.906s-2.45,5.813-1.08,8.472" transform="translate(-393.451 -430.718)" fill="#fbd45c"/><path d="M470.082,520a41.21,41.21,0,0,1-.572-9.5,14.944,14.944,0,0,1,2.881-7.834,13.031,13.031,0,0,1,3.344-3.03c.334-.211.642.319.309.529a12.389,12.389,0,0,0-4.9,5.913,19.86,19.86,0,0,0-1.055,8.555c.111,1.743.347,3.475.584,5.2a.317.317,0,0,1-.214.377.308.308,0,0,1-.377-.214Z" transform="translate(-394.791 -448.303)" fill="#3f3d56"/><path d="M482.664,540.715a4.721,4.721,0,0,0,4.114,2.124c2.083-.1,3.819-1.552,5.381-2.932l4.622-4.081-3.059-.146a18.354,18.354,0,0,0-6.552.475,6.24,6.24,0,0,0-4.411,4.48" transform="translate(-404.268 -474.056)" fill="#fbd45c"/><path d="M467.388,553.782c2.076-3.674,4.485-7.757,8.788-9.062a9.806,9.806,0,0,1,3.7-.382c.392.034.294.639-.1.605a9.11,9.11,0,0,0-5.9,1.561,15.332,15.332,0,0,0-4.054,4.375c-.671,1.022-1.273,2.088-1.874,3.153C467.756,554.372,467.194,554.126,467.388,553.782Z" transform="translate(-393.316 -480.275)" fill="#3f3d56"/><path d="M880.9,499.9c-9.592,2.754-9.706-10.8-11.232-16.9,5.422,3.692,14.563,8.955,11.2,16.737" transform="translate(-681.01 -436.439)" fill="#fbd45c"/><path d="M891.908,528c1.26-7.127,1.34-16.153-5.653-20.365-.334-.211-.642.319-.309.529,6.751,4.083,6.551,12.8,5.371,19.673a.307.307,0,0,0,.591.163Z" transform="translate(-692.549 -454.024)" fill="#3f3d56"/><path d="M776.9,540.721c-4.39,5.892-10.5-2-14.117-4.889,4.822-.256,12.523-1.25,14.022,4.809" transform="translate(-604.582 -474.062)" fill="#fbd45c"/><path d="M795.549,553.731c-2.481-4.75-6.444-10.122-12.484-9.443-.392.034-.294.639.1.6,5.738-.594,9.471,4.567,11.827,9.088C795.182,554.321,795.744,554.075,795.549,553.731Z" transform="translate(-618.904 -480.224)" fill="#3f3d56"/><path d="M616.146,512.991H541.785a.285.285,0,0,1,0-.57h74.361a.285.285,0,0,1,0,.57Z" transform="translate(-446.341 -457.478)" fill="#cacaca"/><path d="M603.377,327.253l-.49-6.095a.826.826,0,0,0-1.352-.317l-5.969,5.592a17.6,17.6,0,0,0-5.738-.258l-.151-6.008a.826.826,0,0,0-1.346-.372l-4.816,5.337a17.722,17.722,0,1,0,19.86,2.121Z" transform="translate(-469.703 -319.579)" fill="#3f3d56"/><path d="M608.583,427.625c6.519-.1,14.72,22.773-.728,22.892-7.993.061-22.145,1.62-22.145,1.62s-11-16.51-6.094-26.781Z" transform="translate(-472.696 -395.218)" fill="#3f3d56"/><path d="M426.623,155.63v11.853h5.541l4.4-12.069" transform="translate(-305.075 -111.134)" fill="#3f3d56"/><path d="M639.122,486.736h-5.542a.216.216,0,0,1-.216-.216V474.667a.216.216,0,1,1,.432,0V486.3h5.174l4.345-11.927a.216.216,0,1,1,.406.148l-4.4,12.069A.216.216,0,0,1,639.122,486.736Z" transform="translate(-512.033 -430.171)" fill="#fff"/><ellipse cx="4.537" cy="1.512" rx="4.537" ry="1.512" transform="translate(131.378 54.11)" fill="#3f3d56"/><path d="M674.813,484.5a.216.216,0,0,1-.206-.153c-.024-.078-2.319-7.774,3.118-10.092a.216.216,0,0,1,.169.4c-5.083,2.167-2.9,9.494-2.875,9.568a.216.216,0,0,1-.207.28Z" transform="translate(-541.166 -430.171)" fill="#fff"/><path d="M701.625,502.987c-.03-.044-.053-.09-.079-.134l-.708.026Z" transform="translate(-560.282 -450.636)" fill="#3f3d56"/><path d="M721.944,472.457a6.266,6.266,0,0,0-8.747-1.588,26.327,26.327,0,0,0-3.023,3.34,11.2,11.2,0,0,1-6.5,3.442c-1.736.26-3.572.119-5.176.834-1.555.693-2.728,2.672-1.882,4.1l17.9-.66a12.087,12.087,0,0,0,5.03-.913A6.266,6.266,0,0,0,721.944,472.457Z" transform="translate(-557.058 -426.954)" fill="#3f3d56"/><path d="M596.144,431.989a17.776,17.776,0,0,1-7.136-1.424,16.014,16.014,0,0,1-6.956-5.638.216.216,0,1,1,.368-.226,15.891,15.891,0,0,0,6.781,5.478c4.24,1.833,11.48,2.751,21.894-3.283a.216.216,0,1,1,.217.374C605.2,430.811,600.152,431.989,596.144,431.989Z" transform="translate(-475.317 -394.676)" fill="#fff"/><path d="M631.085,407.716a1.514,1.514,0,0,1-1.512-1.512.216.216,0,1,1,.432,0,1.08,1.08,0,1,0,2.16,0,.216.216,0,0,1,.432,0A1.514,1.514,0,0,1,631.085,407.716Z" transform="translate(-509.322 -381.368)" fill="#fff"/><path d="M618.459,486.644a.216.216,0,0,1-.206-.151L614.8,475.654a.216.216,0,0,1,.412-.131l3.457,10.839a.216.216,0,0,1-.206.282Z" transform="translate(-498.747 -430.985)" fill="#fff"/><ellipse cx="4.537" cy="1.512" rx="4.537" ry="1.512" transform="translate(119.711 55.622)" fill="#3f3d56"/><ellipse cx="4.537" cy="1.512" rx="4.537" ry="1.512" transform="translate(112.366 55.406)" fill="#3f3d56"/><ellipse cx="1.728" cy="0.665" rx="1.728" ry="0.665" transform="translate(120.143 21.47)" fill="#fff"/><path d="M589.92,372.1a5.27,5.27,0,0,1,8.089,0,5.857,5.857,0,1,0-8.281-.192Q589.821,372.009,589.92,372.1Z" transform="translate(-479.669 -349.92)" fill="#fff"/><path d="M645.427,372.1a5.27,5.27,0,0,1,8.089,0,5.857,5.857,0,1,0-8.281-.192Q645.328,372.009,645.427,372.1Z" transform="translate(-519.362 -349.92)" fill="#fff"/><circle cx="2.015" cy="2.015" r="2.015" transform="translate(109.712 16.502)" fill="#3f3d56"/><circle cx="2.015" cy="2.015" r="2.015" transform="translate(125.526 16.502)" fill="#3f3d56"/><circle cx="1.766" cy="1.766" r="1.766" transform="translate(128.532 22.916)" fill="#ff6584"/><circle cx="1.766" cy="1.766" r="1.766" transform="translate(112.577 22.916)" fill="#ff6584"/></g></svg>