<svg version="1.1" id="Layer_1" xmlns="http://www.w3.org/2000/svg" xmlns:xlink="http://www.w3.org/1999/xlink" x="0px" y="0px"
	 viewBox="0 0 271.1 137.3" style="enable-background:new 0 0 271.1 137.3;" xml:space="preserve">
<g id="undraw_chilling_re_4iq9" transform="translate(0)">
	<path id="Ellipse_29" fill="#F0F0F0" d="M165,120.2c53,0,105.3,17,95.9,17c-19.1,0-163.5,0-191.8,0C59.7,137.2,112,120.2,165,120.2z"
		/>
	<path id="Path_223" fill="#E4E4E4" d="M254.2,103.7H74.4V73.2h2.8V50.5c0-11.1,9-20.2,20.2-20.2h134.2c11.1,0,20.2,9,20.2,20.2v22.7
		h2.4L254.2,103.7z"/>
	<path id="Path_224" fill="#CACACA" d="M259,137.3h-8.9v-0.2c0-16.5-13.4-29.8-29.9-29.9H108.3c-16.5,0-29.8,13.4-29.9,29.9v0.2h-8.9
		c-4.2,0-7.7-3.4-7.7-7.7V79.7c-2.6-1.5-4.7-9.4-3.3-15.8c0.9-4,3.3-8.8,10.3-9.1c6.8-0.3,11.8,6.1,12.2,12.2c0.2,3.2-0.7,6.4-2.7,9
		h0.1v7.1c14.1-4.6,28.9-7,43.7-7.1c14.7,0,29.2,2.4,43.1,7.2c28.8-9.3,57.4-9.5,84.8-0.5V76h0.1c-2-2.6-2.9-5.8-2.7-9
		c0.5-6.7,6-12.2,12.2-12.2h0c7.4,0,10,4.4,10.9,8.2c1.6,6.6-1.3,15.3-3.9,16.8v49.9C266.7,133.8,263.3,137.3,259,137.3z"/>
	<path id="Path_225" fill="#F0F0F0" d="M55.7,89.5H0.9v4.7h1v42.9h5.5V94.2h42.1v42.9H55V94.2h0.7V89.5z"/>
	<path id="Path_164" fill="#9E616A" d="M196,85.8c0,0,2.7-4.4,6.1-1.8s9.9,7,9.9,7s1.3,2.8-2.1,1.8s-14.5-2.8-14.5-2.8L196,85.8z"/>
	<path id="Path_161" fill="#2F2E41" d="M182.8,91.3c-2.6,0.1-5.2-0.3-7.7-0.9c-2.5-0.8-4.1-2-4.7-3.7c-0.6-1.5-0.3-3.1,0.7-4.4
		c3.7-4.8,16.6-6.2,18.3-6.3l3.5-6.6c0.2-1.6-0.8-2.8,1-2.8l21.6-0.3c1.8,0,1.3,1.1,1.6,2.6l3.3,5.9l-14.2,6l2.1,5.2l-0.1,0.1
		C204.1,88.4,192.2,91.3,182.8,91.3z"/>
	<path id="Path_162" fill="#2F2E41" d="M218.5,75c0,0,19.8-2.3,18.5,6.8s-16.4,15.5-39.2,0l2.6-4.5c0,0,8.5-0.4,13.7-2.7L218.5,75z"/>
	<path id="Path_226" fill="#3F3D56" d="M216.7,29l-7.1-2.7l-13.8-0.2l-5.9,2.8l1.7,9.6c0,0-3.4,5.7,0.3,11.4l0.8,20.3
		c0,0,13.3,7.7,24.6-1.6l-2.5-18.9c0,0,4.2-8.8,1-12L216.7,29z"/>
	<path id="Path_163" fill="#9E616A" d="M213.1,83.6c0,0-2.2-4.7-5.9-2.4s-10.5,6-10.5,6s-1.6,2.7,1.9,2s14.7-1.2,14.7-1.2L213.1,83.6z"
		/>
	<path id="Path_227" fill="#FFFFFF" d="M209.6,68.2h-13.9c-0.7,0-1.3-0.6-1.3-1.3l0,0l-0.6-18.2c0-0.7,0.6-1.3,1.3-1.3h15.1
		c0.7,0,1.3,0.6,1.3,1.3l0,0L211,66.9C211,67.6,210.4,68.2,209.6,68.2z"/>
	<circle id="Ellipse_30" fill="#FBD45C" cx="202.7" cy="52.9" r="1.2"/>
	<path id="Path_228" fill="#9E616A" d="M203.1,61c-0.8-1.6-2.8-2.3-4.4-1.5c-0.2,0.1-0.3,0.2-0.5,0.3l-6.5-3.9l-3.4,3.4l9.2,5.4
		c1.2,1.4,3.3,1.6,4.7,0.4C203.4,64,203.8,62.3,203.1,61L203.1,61z"/>
	<path id="Path_229" fill="#9E616A" d="M202.8,59.5c1.1-1.5,3.2-1.8,4.6-0.7c0.2,0.1,0.3,0.2,0.4,0.4l7.1-2.7l2.7,3.9l-10.1,3.6
		c-1.4,1.2-3.5,1-4.7-0.5C201.9,62.4,201.8,60.7,202.8,59.5L202.8,59.5z"/>
	<path id="Path_230" fill="#3F3D56" d="M215.9,29c0,0,4.6-0.9,5.8,3.1s7.4,18.8,5.5,20.9c-3.3,3.4-6.9,6.5-10.8,9.2
		c-0.9,0.6-2,1.1-3.1,1.2l-2.8,1.2l-0.9-7.1l3.2-1.9l4.8-4l-2.8-8.3L215.9,29z"/>
	<path id="Path_231" fill="#3F3D56" d="M190.3,29.1c0,0-4.6-0.9-5.8,3.1s-7.4,18.8-5.5,20.9c3.3,3.4,6.9,6.5,10.8,9.2
		c0.9,0.6,2,1.1,3.1,1.2l2.8,1.2l0.9-7.1l-3.2-1.9l-4.8-4l4.5-10.9L190.3,29.1z"/>
	<circle id="Ellipse_31" fill="#9E616A" cx="203.2" cy="12.9" r="10.6"/>
	<path id="Path_232" fill="#2F2E41" d="M213.8,5.1c-0.7-1.5-2-2.8-3.5-3.4c-1.6-0.6-3.3-0.6-4.9,0c-1.4-0.9-3-1.5-4.6-1.7
		c-1.7-0.1-3.3,0.6-4.4,1.9c-0.2,0.4-0.5,0.7-0.8,1c-0.8,0.8-2.1,0.6-3.1,0.5l1.5,1.2l-1.8,0.5l2.1,1.2c-2,1.2-2.9,3.8-2.7,6.2
		c0.3,2.2,1.2,4.3,2.6,6.1c0.4-1.2,0.5-2.4,0.4-3.6c0-1.3,0.2-2.8,1.3-3.5c0.7-0.4,1.6-0.6,2.4-0.5c4.3,0,8.5,0.3,12.8,0.8
		c0.6,0,1.1,0.2,1.6,0.5c0.9,0.6,1.1,2,1.2,3.1c0.5-1.9,0.7-3.9,0.7-5.9C214.6,8,214.3,6.5,213.8,5.1z"/>
	<path id="Path_163-2" fill="#FEB8B8" d="M129.9,106.4c0,0,1.9,4.4,5.4,2.5s10-5.1,10-5.1s1.6-2.4-1.7-1.9s-13.7,0.6-13.7,0.6
		L129.9,106.4z"/>
	<path id="Path_233" fill="#FFB6B6" d="M103.4,13.1c1.4,1.4,1.4,3.7,0.1,5.1c-0.1,0.1-0.3,0.3-0.4,0.4l3.7,12.3l-6.3-2l-2.5-11.3
		c-0.9-1.4-0.7-3.2,0.4-4.4C99.7,11.8,102,11.7,103.4,13.1C103.4,13.1,103.4,13.1,103.4,13.1L103.4,13.1z"/>
	<path id="Path_234" fill="#FEB8B8" d="M130,103.9l3.9-1.4l-3.6-16.2l-5.8,2L130,103.9z"/>
	<path id="Path_163-3" fill="#FEB8B8" d="M144.5,99.7c0,0,3.4,3.4,6,0.2s7.3-8.6,7.3-8.6s0.5-2.8-2.3-1.1S143,96,143,96L144.5,99.7z"/>
	<path id="Path_235" fill="#FEB8B8" d="M143.6,97.2l3.1-2.8l-9.5-13.5l-4.6,4.1L143.6,97.2z"/>
	<path id="Path_236" fill="#FBD45C" d="M105.5,25.7l0.7,2.2l3.2,9.8c0.9,2.7-0.5,5.7-3.2,6.6c-1.2,0.4-2.5,0.3-3.6-0.2l-18.2-8.3
		c-2.7-1.2-4-4.4-2.8-7.2c0.1-0.2,0.2-0.5,0.4-0.7c1.5-2.3,4.5-3.1,6.9-1.7l12.6,7.1l-1.4-6.8L105.5,25.7z"/>
	<path id="Path_237" fill="#2F2E41" d="M134.1,96.2l-6.2,2.9l-12.6-24.7c-10.8,6-21.5,10.5-31.8,11.4c-3.5,0.3-6.6-2.3-6.9-5.8
		c0-0.2,0-0.3,0-0.5c0-4.3,0.6-8.6,1.6-12.8l17.5,0.2l1.4,2.2l15.7-7.9c3.2-1.6,7.1-0.3,8.6,2.9c0,0,0,0,0,0
		c0.1,0.2,0.2,0.3,0.2,0.5L134.1,96.2z"/>
	<path id="Path_238" fill="#2F2E41" d="M141.9,87.3l-6.2,2.9l-20-19.7c-10.8,6-21.5,10.5-31.8,11.4c-3.5,0.3-6.6-2.3-6.9-5.8
		c0-0.2,0-0.3,0-0.5c0-4.3,0.6-8.6,1.6-12.8L97,58l0.4,7.2l15.7-7.9c3.2-1.6,7.1-0.3,8.6,2.9c0,0,0,0,0,0c0.1,0.2,0.2,0.3,0.2,0.5
		L141.9,87.3z"/>

		<ellipse id="Ellipse_32" transform="matrix(0.9431 -0.3324 0.3324 0.9431 0.1455 28.006)" fill="#FFB6B6" cx="81.9" cy="13.6" rx="8.3" ry="8.5"/>
	<path id="Path_239" fill="#3F3D56" d="M95.6,23.7c-0.1,0.4,0.2,0.7,0.5,0.8c0.2,0,6.3,1.4,6.3,1c0.1-0.1,0.2-0.3,0.3-0.4l2.7-17.7
		c0-0.2,0-0.4-0.2-0.5c0.1-0.5-6.1,0.1-6.4,0c-0.3,0-0.6,0.2-0.6,0.5L95.6,23.7z"/>
	<path id="Path_240" fill="#FBD45C" d="M104.1,7.3c0,0-5.3,0.3-5.2,0.3c-0.1,0-0.5-0.1-0.5,0.2L96,23.3c-0.2,0.4,5.6,1,5.7,1.1
		c0.5,0.1,2.4-16.7,2.6-16.9C104.4,7.5,104.3,7.4,104.1,7.3C104.2,7.3,104.2,7.3,104.1,7.3z"/>
	<path id="Path_241" fill="#FBD45C" d="M90.7,24.5c0-0.2,0-0.4-0.1-0.6c-0.3-1.2-1.5-2-2.7-1.7l-3.8,0.9c-1.2,0.3-1.9,1.5-1.6,2.7
		c0,0,0,0,0,0c0.1,0.5,0.4,1,0.8,1.3c-3.7,1.8-6,5.6-5.8,9.7c-1.3,8.8-1,17.7,0.9,26.3l19,2L99,49.6l0.6-2.4c0.2-0.3,0.3-0.7,0.4-1
		c0.8-1.9,1.2-3.9,1.3-6c0.1-1.5-0.1-2.9-0.5-4.3C99.4,31.4,95.8,27.7,90.7,24.5z"/>
	<path id="Path_242" class="st10" d="M101.3,40.2c-0.1,2-0.5,4.1-1.3,6c-0.1,0.3-0.3,0.7-0.4,1L99,49.6
		c-5.8-1.8-14.3-14.1-14.3-14.1l4.8-2.8L101.3,40.2z"/>
	<path id="Path_243" fill="#FFB6B6" d="M97,18.2c-0.4,2,0.9,3.8,2.8,4.3c0.2,0,0.4,0.1,0.6,0.1l3.9,12.2l4.1-5.1L104,18.8
		c-0.1-1.7-1.3-3.1-2.9-3.4c-1.9-0.4-3.7,0.8-4.1,2.7C97,18.1,97,18.1,97,18.2L97,18.2z"/>
	<path id="Path_244" fill="#FBD45C" d="M102.2,30.3l6-1.2l3.9,12c0.6,1.7,0.2,3.6-1,5.1l0,0c-1.5,1.7-3.9,2.3-5.9,1.4l-18.2-8.3
		c-2.6-1.2-3.9-4.2-2.9-6.9l0,0c1-2.7,4-4,6.7-3c0.1,0,0.1,0,0.2,0.1c0.2,0.1,0.3,0.2,0.5,0.2l12.6,7.1L102.2,30.3z"/>
	<path id="Path_245" fill="#2F2E41" d="M85.6,2c-2-0.4-4.1,0.3-6,1l-4.2,1.5C73.6,5.1,72,6,70.7,7.3c-1.1,1.4-1.3,3.8,0.2,4.9
		c-3.7-1.5-8.2-0.4-11.3,2.1c-1.6,1.2-2.8,2.8-3.5,4.7c-0.7,2.1-0.8,4.3-0.2,6.4c0.5,2.1,1.2,4.2,2.1,6.2c0.5,1.3,1.2,2.7,2.5,3.1
		c1.2,0.3,2.5-0.1,3.4-1c1.5-1.6,2.4-3.7,2.5-5.9c0.2-2.2,0.5-4.4,1-6.5c0.6-2.1,1.9-4.1,3.9-4.9c-0.8,2.6,0.1,5.3,2.2,6.9
		c1.6,1,3.5,1.2,5.3,0.7c1.8-0.5,3.4-1.3,5-2.2c1.1-0.6,2.3-1.4,2.3-2.7c0-1.2-1.2-2.1-2-3.1c-1.4-2-1-4.8,0.9-6.4l-0.2-0.1
		c1.9-0.4,3.9-1.3,4.3-3.2C89.5,4.4,87.6,2.4,85.6,2z"/>
	<path id="Path_246" fill="#3F3D56" d="M88.6,88.2c-1.8,0-3.6-0.3-5.3-1c-3.4-1.3-6.2-4-7.7-7.3l-10.5-24c-2.9-6.8,0.3-14.7,7.1-17.7
		c0.1-0.1,0.3-0.1,0.4-0.2l0.2-0.1l21.4,49.1L94,87.1C92.3,87.8,90.4,88.2,88.6,88.2L88.6,88.2z"/>
	<path id="Path_247" fill="#3F3D56" d="M241.3,85.8c-1.6,0-3.1-0.3-4.6-0.9l-0.2-0.1l18.1-43l0.2,0.1c6.1,2.6,8.9,9.5,6.4,15.6
		l-8.9,21.1C250.4,83,246.1,85.8,241.3,85.8z"/>
	<path id="Path_248" fill="#F0F0F0" d="M0,72.5c0-0.1,0.1-0.3,0.2-0.3l17.2-11.4c-0.3-0.1-0.5-0.3-0.6-0.5l0,0
		c-0.4-0.6-0.1-1.4,0.5-1.8l1.4-0.8c0.6-0.4,1.4-0.1,1.8,0.5c0.1,0.2,0.2,0.3,0.2,0.5l12.4-8.2c0.8-2,2.5-3.6,4.7-4.3v-3.6h4.6v3.6
		c3.1,1,5.2,3.9,5.2,7.1v1H43c0,1.6-1.3,2.9-2.9,2.9c-1.6,0-2.9-1.3-2.9-2.9h-4.6v-1c0-0.5,0-0.9,0.1-1.4L1.2,72.7l13.1,15.9h0.3
		c1,0,2.1,0,3,0.1c-0.1-0.2-0.1-0.3-0.1-0.5c0-0.7,0.7-1.3,1.4-1.2l1.6,0.1c0.7,0,1.3,0.7,1.2,1.4c0,0.2-0.1,0.4-0.2,0.6
		c2.9,0.3,4.7,0.7,4.7,0.9c0,0.4-5,0-11.3,0c-0.1,0.3-0.4,0.4-0.6,0.3c-0.1,0-0.2-0.1-0.2-0.2l-0.1-0.1c-6.3,0-11.2,0.4-11.2,0
		c0-0.3,4.4-1.2,10.2-1.3L0.1,72.8C0,72.7,0,72.6,0,72.5z"/>
	<path id="Path_249" fill="#F0F0F0" d="M44.3,88.6V66.3c0-0.7,1-1.2,2.3-1.2s2.3,0.5,2.3,1.2v22.3c0,0.7-1,1.2-2.3,1.2
		S44.3,89.3,44.3,88.6z"/>
	<path id="Path_250" fill="#F0F0F0" d="M38.9,88.6V66.3c0-0.7,1-1.2,2.3-1.2s2.3,0.5,2.3,1.2v22.3c0,0.7-1,1.2-2.3,1.2
		S38.9,89.3,38.9,88.6z"/>
	<path id="Path_251" fill="#F0F0F0" d="M33.4,88.6V66.3c0-0.7,1-1.2,2.3-1.2s2.3,0.5,2.3,1.2v22.3c0,0.7-1,1.2-2.3,1.2
		S33.4,89.3,33.4,88.6z"/>
</g>
</svg>
