<svg viewBox="0 0 271.1 137.3" xmlns="http://www.w3.org/2000/svg"><g transform="translate(0)">	<path d="m165 120.2c53 0 105.3 17 95.9 17h-191.8c-9.4 0 42.9-17 95.9-17z" fill="#F0F0F0"/>	<path d="m254.2 103.7h-179.8v-30.5h2.8v-22.7c0-11.1 9-20.2 20.2-20.2h134.2c11.1 0 20.2 9 20.2 20.2v22.7h2.4v30.5z" fill="#E4E4E4"/>	<path d="m259 137.3h-8.9v-0.2c0-16.5-13.4-29.8-29.9-29.9h-111.9c-16.5 0-29.8 13.4-29.9 29.9v0.2h-8.9c-4.2 0-7.7-3.4-7.7-7.7v-49.9c-2.6-1.5-4.7-9.4-3.3-15.8 0.9-4 3.3-8.8 10.3-9.1 6.8-0.3 11.8 6.1 12.2 12.2 0.2 3.2-0.7 6.4-2.7 9h0.1v7.1c14.1-4.6 28.9-7 43.7-7.1 14.7 0 29.2 2.4 43.1 7.2 28.8-9.3 57.4-9.5 84.8-0.5v-6.7h0.1c-2-2.6-2.9-5.8-2.7-9 0.5-6.7 6-12.2 12.2-12.2 7.4 0 10 4.4 10.9 8.2 1.6 6.6-1.3 15.3-3.9 16.8v49.9c0.1 4.1-3.3 7.6-7.6 7.6z" fill="#CACACA"/>	<path d="M55.7,89.5H0.9v4.7h1v42.9h5.5V94.2h42.1v42.9H55V94.2h0.7V89.5z" fill="#F0F0F0"/>	<path d="m196 85.8s2.7-4.4 6.1-1.8 9.9 7 9.9 7 1.3 2.8-2.1 1.8-14.5-2.8-14.5-2.8l0.6-4.2z" fill="#9E616A"/>	<path d="m182.8 91.3c-2.6 0.1-5.2-0.3-7.7-0.9-2.5-0.8-4.1-2-4.7-3.7-0.6-1.5-0.3-3.1 0.7-4.4 3.7-4.8 16.6-6.2 18.3-6.3l3.5-6.6c0.2-1.6-0.8-2.8 1-2.8l21.6-0.3c1.8 0 1.3 1.1 1.6 2.6l3.3 5.9-14.2 6 2.1 5.2-0.1 0.1c-4.1 2.3-16 5.2-25.4 5.2z" fill="#2F2E41"/>	<path d="m218.5 75s19.8-2.3 18.5 6.8-16.4 15.5-39.2 0l2.6-4.5s8.5-0.4 13.7-2.7l4.4 0.4z" fill="#2F2E41"/>	<path d="m216.7 29-7.1-2.7-13.8-0.2-5.9 2.8 1.7 9.6s-3.4 5.7 0.3 11.4l0.8 20.3s13.3 7.7 24.6-1.6l-2.5-18.9s4.2-8.8 1-12l0.9-8.7z" fill="#3F3D56"/>	<path d="m213.1 83.6s-2.2-4.7-5.9-2.4-10.5 6-10.5 6-1.6 2.7 1.9 2 14.7-1.2 14.7-1.2l-0.2-4.4z" fill="#9E616A"/>	<path d="m209.6 68.2h-13.9c-0.7 0-1.3-0.6-1.3-1.3l-0.6-18.2c0-0.7 0.6-1.3 1.3-1.3h15.1c0.7 0 1.3 0.6 1.3 1.3l-0.5 18.2c0 0.7-0.6 1.3-1.4 1.3z" fill="#fff"/>	<circle cx="202.7" cy="52.9" r="1.2" fill="#FBD45C"/>	<path d="m203.1 61c-0.8-1.6-2.8-2.3-4.4-1.5-0.2 0.1-0.3 0.2-0.5 0.3l-6.5-3.9-3.4 3.4 9.2 5.4c1.2 1.4 3.3 1.6 4.7 0.4 1.2-1.1 1.6-2.8 0.9-4.1z" fill="#9E616A"/>	<path d="m202.8 59.5c1.1-1.5 3.2-1.8 4.6-0.7 0.2 0.1 0.3 0.2 0.4 0.4l7.1-2.7 2.7 3.9-10.1 3.6c-1.4 1.2-3.5 1-4.7-0.5-0.9-1.1-1-2.8 0-4z" fill="#9E616A"/>	<path d="m215.9 29s4.6-0.9 5.8 3.1 7.4 18.8 5.5 20.9c-3.3 3.4-6.9 6.5-10.8 9.2-0.9 0.6-2 1.1-3.1 1.2l-2.8 1.2-0.9-7.1 3.2-1.9 4.8-4-2.8-8.3 1.1-14.3z" fill="#3F3D56"/>	<path d="m190.3 29.1s-4.6-0.9-5.8 3.1-7.4 18.8-5.5 20.9c3.3 3.4 6.9 6.5 10.8 9.2 0.9 0.6 2 1.1 3.1 1.2l2.8 1.2 0.9-7.1-3.2-1.9-4.8-4 4.5-10.9-2.8-11.7z" fill="#3F3D56"/>	<circle cx="203.2" cy="12.9" r="10.6" fill="#9E616A"/>	<path d="m213.8 5.1c-0.7-1.5-2-2.8-3.5-3.4-1.6-0.6-3.3-0.6-4.9 0-1.4-0.9-3-1.5-4.6-1.7-1.7-0.1-3.3 0.6-4.4 1.9-0.2 0.4-0.5 0.7-0.8 1-0.8 0.8-2.1 0.6-3.1 0.5l1.5 1.2-1.8 0.5 2.1 1.2c-2 1.2-2.9 3.8-2.7 6.2 0.3 2.2 1.2 4.3 2.6 6.1 0.4-1.2 0.5-2.4 0.4-3.6 0-1.3 0.2-2.8 1.3-3.5 0.7-0.4 1.6-0.6 2.4-0.5 4.3 0 8.5 0.3 12.8 0.8 0.6 0 1.1 0.2 1.6 0.5 0.9 0.6 1.1 2 1.2 3.1 0.5-1.9 0.7-3.9 0.7-5.9 0-1.5-0.3-3-0.8-4.4z" fill="#2F2E41"/>	<path d="m129.9 106.4s1.9 4.4 5.4 2.5 10-5.1 10-5.1 1.6-2.4-1.7-1.9-13.7 0.6-13.7 0.6v3.9z" fill="#FEB8B8"/>	<path d="m103.4 13.1c1.4 1.4 1.4 3.7 0.1 5.1l-0.4 0.4 3.7 12.3-6.3-2-2.5-11.3c-0.9-1.4-0.7-3.2 0.4-4.4 1.3-1.4 3.6-1.5 5-0.1z" fill="#FFB6B6"/>	<path d="m130 103.9 3.9-1.4-3.6-16.2-5.8 2 5.5 15.6z" fill="#FEB8B8"/>	<path d="m144.5 99.7s3.4 3.4 6 0.2 7.3-8.6 7.3-8.6 0.5-2.8-2.3-1.1-12.5 5.8-12.5 5.8l1.5 3.7z" fill="#FEB8B8"/>	<path d="m143.6 97.2 3.1-2.8-9.5-13.5-4.6 4.1 11 12.2z" fill="#FEB8B8"/>	<path d="m105.5 25.7 0.7 2.2 3.2 9.8c0.9 2.7-0.5 5.7-3.2 6.6-1.2 0.4-2.5 0.3-3.6-0.2l-18.2-8.3c-2.7-1.2-4-4.4-2.8-7.2 0.1-0.2 0.2-0.5 0.4-0.7 1.5-2.3 4.5-3.1 6.9-1.7l12.6 7.1-1.4-6.8 5.4-0.8z" fill="#FBD45C"/>	<path d="m134.1 96.2-6.2 2.9-12.6-24.7c-10.8 6-21.5 10.5-31.8 11.4-3.5 0.3-6.6-2.3-6.9-5.8v-0.5c0-4.3 0.6-8.6 1.6-12.8l17.5 0.2 1.4 2.2 15.7-7.9c3.2-1.6 7.1-0.3 8.6 2.9 0.1 0.2 0.2 0.3 0.2 0.5l12.5 31.6z" fill="#2F2E41"/>	<path d="m141.9 87.3-6.2 2.9-20-19.7c-10.8 6-21.5 10.5-31.8 11.4-3.5 0.3-6.6-2.3-6.9-5.8v-0.5c0-4.3 0.6-8.6 1.6-12.8l18.4-4.8 0.4 7.2 15.7-7.9c3.2-1.6 7.1-0.3 8.6 2.9 0.1 0.2 0.2 0.3 0.2 0.5l20 26.6z" fill="#2F2E41"/>		<ellipse transform="matrix(.9431 -.3324 .3324 .9431 .1455 28.006)" cx="81.9" cy="13.6" rx="8.3" ry="8.5" fill="#FFB6B6"/>	<path d="m95.6 23.7c-0.1 0.4 0.2 0.7 0.5 0.8 0.2 0 6.3 1.4 6.3 1 0.1-0.1 0.2-0.3 0.3-0.4l2.7-17.7c0-0.2 0-0.4-0.2-0.5 0.1-0.5-6.1 0.1-6.4 0-0.3 0-0.6 0.2-0.6 0.5l-2.6 16.3z" fill="#3F3D56"/>	<path d="m104.1 7.3s-5.3 0.3-5.2 0.3c-0.1 0-0.5-0.1-0.5 0.2l-2.4 15.5c-0.2 0.4 5.6 1 5.7 1.1 0.5 0.1 2.4-16.7 2.6-16.9 0.1 0 0-0.1-0.2-0.2 0.1 0 0.1 0 0 0z" fill="#FBD45C"/>	<path d="m90.7 24.5c0-0.2 0-0.4-0.1-0.6-0.3-1.2-1.5-2-2.7-1.7l-3.8 0.9c-1.2 0.3-1.9 1.5-1.6 2.7 0.1 0.5 0.4 1 0.8 1.3-3.7 1.8-6 5.6-5.8 9.7-1.3 8.8-1 17.7 0.9 26.3l19 2 1.6-15.5 0.6-2.4c0.2-0.3 0.3-0.7 0.4-1 0.8-1.9 1.2-3.9 1.3-6 0.1-1.5-0.1-2.9-0.5-4.3-1.4-4.5-5-8.2-10.1-11.4z" fill="#FBD45C"/>	<path class="st10" d="m101.3 40.2c-0.1 2-0.5 4.1-1.3 6-0.1 0.3-0.3 0.7-0.4 1l-0.6 2.4c-5.8-1.8-14.3-14.1-14.3-14.1l4.8-2.8 11.8 7.5z"/>	<path d="m97 18.2c-0.4 2 0.9 3.8 2.8 4.3 0.2 0 0.4 0.1 0.6 0.1l3.9 12.2 4.1-5.1-4.4-10.9c-0.1-1.7-1.3-3.1-2.9-3.4-1.9-0.4-3.7 0.8-4.1 2.7v0.1z" fill="#FFB6B6"/>	<path d="m102.2 30.3 6-1.2 3.9 12c0.6 1.7 0.2 3.6-1 5.1-1.5 1.7-3.9 2.3-5.9 1.4l-18.2-8.3c-2.6-1.2-3.9-4.2-2.9-6.9s4-4 6.7-3c0.1 0 0.1 0 0.2 0.1 0.2 0.1 0.3 0.2 0.5 0.2l12.6 7.1-1.9-6.5z" fill="#FBD45C"/>	<path d="m85.6 2c-2-0.4-4.1 0.3-6 1l-4.2 1.5c-1.8 0.6-3.4 1.5-4.7 2.8-1.1 1.4-1.3 3.8 0.2 4.9-3.7-1.5-8.2-0.4-11.3 2.1-1.6 1.2-2.8 2.8-3.5 4.7-0.7 2.1-0.8 4.3-0.2 6.4 0.5 2.1 1.2 4.2 2.1 6.2 0.5 1.3 1.2 2.7 2.5 3.1 1.2 0.3 2.5-0.1 3.4-1 1.5-1.6 2.4-3.7 2.5-5.9 0.2-2.2 0.5-4.4 1-6.5 0.6-2.1 1.9-4.1 3.9-4.9-0.8 2.6 0.1 5.3 2.2 6.9 1.6 1 3.5 1.2 5.3 0.7s3.4-1.3 5-2.2c1.1-0.6 2.3-1.4 2.3-2.7 0-1.2-1.2-2.1-2-3.1-1.4-2-1-4.8 0.9-6.4l-0.2-0.1c1.9-0.4 3.9-1.3 4.3-3.2s-1.5-3.9-3.5-4.3z" fill="#2F2E41"/>	<path d="m88.6 88.2c-1.8 0-3.6-0.3-5.3-1-3.4-1.3-6.2-4-7.7-7.3l-10.5-24c-2.9-6.8 0.3-14.7 7.1-17.7 0.1-0.1 0.3-0.1 0.4-0.2l0.2-0.1 21.4 49.1-0.2 0.1c-1.7 0.7-3.6 1.1-5.4 1.1z" fill="#3F3D56"/>	<path d="m241.3 85.8c-1.6 0-3.1-0.3-4.6-0.9l-0.2-0.1 18.1-43 0.2 0.1c6.1 2.6 8.9 9.5 6.4 15.6l-8.9 21.1c-1.9 4.4-6.2 7.2-11 7.2z" fill="#3F3D56"/>	<path d="m0 72.5c0-0.1 0.1-0.3 0.2-0.3l17.2-11.4c-0.3-0.1-0.5-0.3-0.6-0.5-0.4-0.6-0.1-1.4 0.5-1.8l1.4-0.8c0.6-0.4 1.4-0.1 1.8 0.5 0.1 0.2 0.2 0.3 0.2 0.5l12.4-8.2c0.8-2 2.5-3.6 4.7-4.3v-3.6h4.6v3.6c3.1 1 5.2 3.9 5.2 7.1v1h-4.6c0 1.6-1.3 2.9-2.9 2.9s-2.9-1.3-2.9-2.9h-4.6v-1c0-0.5 0-0.9 0.1-1.4l-31.5 20.8 13.1 15.9h0.3c1 0 2.1 0 3 0.1-0.1-0.2-0.1-0.3-0.1-0.5 0-0.7 0.7-1.3 1.4-1.2l1.6 0.1c0.7 0 1.3 0.7 1.2 1.4 0 0.2-0.1 0.4-0.2 0.6 2.9 0.3 4.7 0.7 4.7 0.9 0 0.4-5 0-11.3 0-0.1 0.3-0.4 0.4-0.6 0.3-0.1 0-0.2-0.1-0.2-0.2l-0.1-0.1c-6.3 0-11.2 0.4-11.2 0 0-0.3 4.4-1.2 10.2-1.3l-12.9-15.9c-0.1-0.1-0.1-0.2-0.1-0.3z" fill="#F0F0F0"/>	<path d="m44.3 88.6v-22.3c0-0.7 1-1.2 2.3-1.2s2.3 0.5 2.3 1.2v22.3c0 0.7-1 1.2-2.3 1.2s-2.3-0.5-2.3-1.2z" fill="#F0F0F0"/>	<path d="m38.9 88.6v-22.3c0-0.7 1-1.2 2.3-1.2s2.3 0.5 2.3 1.2v22.3c0 0.7-1 1.2-2.3 1.2s-2.3-0.5-2.3-1.2z" fill="#F0F0F0"/>	<path d="m33.4 88.6v-22.3c0-0.7 1-1.2 2.3-1.2s2.3 0.5 2.3 1.2v22.3c0 0.7-1 1.2-2.3 1.2s-2.3-0.5-2.3-1.2z" fill="#F0F0F0"/></g></svg>
