<svg xmlns="http://www.w3.org/2000/svg" width="271.099" height="153.112" viewBox="0 0 271.099 153.112">
  <g id="undraw_chilling_re_4iq9" transform="translate(0)">
    <ellipse id="Ellipse_29" data-name="Ellipse 29" cx="95.919" cy="16.965" rx="95.919" ry="16.965" transform="translate(69.062 119.182)" fill="#f0f0f0"/>
    <path id="Path_223" data-name="Path 223" d="M592.335,381.529H412.569V351.01h2.773V328.294a20.21,20.21,0,0,1,20.187-20.187H569.7a20.21,20.21,0,0,1,20.187,20.187V351.01h2.447Z" transform="translate(-338.17 -277.845)" fill="#e4e4e4"/>
    <path id="Path_224" data-name="Path 224" d="M563.479,465.7H554.53v-.163a29.886,29.886,0,0,0-29.852-29.852H412.772a29.886,29.886,0,0,0-29.852,29.852v.163h-8.949a7.7,7.7,0,0,1-7.69-7.69V408.12c-2.6-1.468-4.712-9.442-3.339-15.81.862-4,3.349-8.823,10.305-9.121,6.772-.291,11.8,6.066,12.247,12.186a13.2,13.2,0,0,1-2.658,8.988h.085v7.117a143.869,143.869,0,0,1,43.71-7.117,133.781,133.781,0,0,1,43.075,7.169c28.836-9.327,57.373-9.508,84.825-.537v-6.632h.085a13.2,13.2,0,0,1-2.658-8.988c.492-6.712,5.983-12.179,12.24-12.186h.021c7.378,0,9.987,4.442,10.877,8.17,1.575,6.6-1.317,15.282-3.925,16.762v49.888A7.7,7.7,0,0,1,563.479,465.7Z" transform="translate(-304.443 -328.423)" fill="#cacaca"/>
    <path id="Path_225" data-name="Path 225" d="M57.492,274.3H2.681v4.731H3.66v42.9H9.206v-42.9H51.293v42.9h5.546v-42.9h.653Z" transform="translate(-1.806 -184.809)" fill="#f0f0f0"/>
    <path id="Path_164" data-name="Path 164" d="M784.191,472.989s2.691-4.414,6.145-1.8,9.852,7.014,9.852,7.014,1.31,2.817-2.081,1.759-14.462-2.761-14.462-2.761Z" transform="translate(-588.18 -387.161)" fill="#9e616a"/>
    <path id="Path_161" data-name="Path 161" d="M718.745,443.343a26.551,26.551,0,0,1-7.651-.933c-2.5-.779-4.075-2.04-4.672-3.749a4.414,4.414,0,0,1,.692-4.376c3.7-4.825,16.552-6.186,18.276-6.347l3.5-6.623c.224-1.58-.835-2.777.994-2.806l21.641-.294c1.8-.038,1.287,1.075,1.594,2.616l3.3,5.886-14.19,5.989,2.145,5.228-.14.081C740.076,440.423,728.133,443.343,718.745,443.343Z" transform="translate(-535.951 -352.028)" fill="#2f2e41"/>
    <path id="Path_162" data-name="Path 162" d="M811.54,444.17s19.817-2.268,18.525,6.8-16.371,15.5-39.2,0l2.585-4.536s8.509-.423,13.678-2.691Z" transform="translate(-593.042 -369.231)" fill="#2f2e41"/>
    <path id="Path_226" data-name="Path 226" d="M793.126,298.459,786,295.795l-13.809-.178-5.944,2.843,1.669,9.595s-3.371,5.708.341,11.416l.833,20.34s13.314,7.721,24.552-1.551l-2.54-18.911s4.248-8.774.956-12.034Z" transform="translate(-576.459 -269.429)" fill="#3f3d56"/>
    <path id="Path_163" data-name="Path 163" d="M803,465.39s-2.219-4.669-5.925-2.431-10.525,5.956-10.525,5.956-1.595,2.666,1.888,1.965,14.67-1.248,14.67-1.248Z" transform="translate(-589.895 -381.766)" fill="#9e616a"/>
    <path id="Path_227" data-name="Path 227" d="M794.382,381.374h-13.9a1.319,1.319,0,0,1-1.319-1.319h0l-.612-18.187a1.319,1.319,0,0,1,1.319-1.319h15.124a1.319,1.319,0,0,1,1.319,1.319h0l-.612,18.187A1.319,1.319,0,0,1,794.382,381.374Z" transform="translate(-584.748 -313.177)" fill="#fff"/>
    <circle id="Ellipse_30" data-name="Ellipse 30" cx="1.225" cy="1.225" r="1.225" transform="translate(201.459 51.66)" fill="#fbd45c"/>
    <path id="Path_228" data-name="Path 228" d="M776.407,391.559a3.321,3.321,0,0,0-4.945-1.215l-6.49-3.933-3.352,3.361,9.244,5.425a3.339,3.339,0,0,0,5.544-3.639Z" transform="translate(-573.34 -330.602)" fill="#9e616a"/>
    <path id="Path_229" data-name="Path 229" d="M804.587,391.573a3.321,3.321,0,0,1,5.085-.279l7.106-2.664,2.672,3.923-10.088,3.621a3.339,3.339,0,0,1-4.775-4.6Z" transform="translate(-601.832 -332.096)" fill="#9e616a"/>
    <path id="Path_230" data-name="Path 230" d="M833.574,303.9s4.614-.923,5.844,3.076,7.382,18.762,5.536,20.915a74.537,74.537,0,0,1-10.765,9.227,7.5,7.5,0,0,1-3.076,1.23l-2.768,1.23-.923-7.074,3.157-1.87,4.84-3.974-2.768-8.3Z" transform="translate(-617.675 -274.945)" fill="#3f3d56"/>
    <path id="Path_231" data-name="Path 231" d="M743.68,304.3s-4.614-.923-5.844,3.076-7.382,18.762-5.536,20.915a74.532,74.532,0,0,0,10.765,9.227,7.5,7.5,0,0,0,3.076,1.23l2.768,1.23.923-7.074-3.157-1.87-4.84-3.974,4.46-10.919Z" transform="translate(-553.355 -275.216)" fill="#3f3d56"/>
    <circle id="Ellipse_31" data-name="Ellipse 31" cx="10.632" cy="10.632" r="10.632" transform="translate(192.55 2.257)" fill="#9e616a"/>
    <path id="Path_232" data-name="Path 232" d="M793.741,220.462a6.784,6.784,0,0,0-3.55-3.429,6.477,6.477,0,0,0-4.856,0,9.78,9.78,0,0,0-4.612-1.679,5.159,5.159,0,0,0-4.4,1.866,7.173,7.173,0,0,1-.768,1c-.815.754-2.053.646-3.136.491l1.458,1.249-1.764.461,2.058,1.248c-1.992,1.2-2.9,3.805-2.658,6.175a13.058,13.058,0,0,0,2.6,6.119,8.341,8.341,0,0,0,.4-3.622c-.009-1.3.221-2.77,1.26-3.5a4.16,4.16,0,0,1,2.449-.506,112.49,112.49,0,0,1,12.761.8,3.592,3.592,0,0,1,1.634.474c.937.639,1.119,1.957,1.213,3.114a22.564,22.564,0,0,0,.72-5.85A10.78,10.78,0,0,0,793.741,220.462Z" transform="translate(-579.983 -215.349)" fill="#2f2e41"/>
    <path id="Path_163-2" data-name="Path 163" d="M582.566,532.023s1.874,4.432,5.411,2.5,10.03-5.11,10.03-5.11,1.592-2.414-1.675-1.9-13.693.564-13.693.564Z" transform="translate(-452.704 -425.619)" fill="#feb8b8"/>
    <path id="Path_233" data-name="Path 233" d="M489.051,253.409a3.662,3.662,0,0,1,.083,5.113,3.512,3.512,0,0,1-.439.381l3.679,12.263-6.26-1.958-2.534-11.345a3.648,3.648,0,0,1,.446-4.44,3.511,3.511,0,0,1,5.026-.014Z" transform="translate(-385.64 -240.283)" fill="#ffb6b6"/>
    <path id="Path_234" data-name="Path 234" d="M387.149,282.035l3.933-1.386-3.594-16.169-5.805,2.046Z" transform="translate(-257.157 -178.192)" fill="#feb8b8"/>
    <path id="Path_163-3" data-name="Path 163" d="M624.326,500.07s3.438,3.367,5.957.222,7.284-8.582,7.284-8.582.538-2.841-2.28-1.111-12.417,5.8-12.417,5.8Z" transform="translate(-479.859 -400.421)" fill="#feb8b8"/>
    <path id="Path_235" data-name="Path 235" d="M417.382,264.315l3.095-2.8-9.55-13.533-4.567,4.126Z" transform="translate(-273.782 -167.08)" fill="#feb8b8"/>
    <path id="Path_236" data-name="Path 236" d="M457.568,293.808l.718,2.184,3.229,9.807a5.2,5.2,0,0,1-3.241,6.6,5.086,5.086,0,0,1-3.644-.186l-18.17-8.269a5.432,5.432,0,0,1-2.391-7.881,5.172,5.172,0,0,1,6.86-1.748l12.6,7.15-1.422-6.782Z" transform="translate(-352.085 -268.119)" fill="#fbd45c"/>
    <path id="Path_237" data-name="Path 237" d="M476.58,436.364l-6.206,2.857-12.64-24.7c-10.836,6.049-21.495,10.52-31.754,11.437a6.451,6.451,0,0,1-6.942-5.817q-.026-.248-.032-.5a57.155,57.155,0,0,1,1.593-12.816l17.452.217,1.424,2.179,15.734-7.943a6.445,6.445,0,0,1,8.652,2.977q.128.257.233.524Z" transform="translate(-342.503 -340.172)" fill="#2f2e41"/>
    <path id="Path_238" data-name="Path 238" d="M485.343,419.437l-6.206,2.857L459.12,402.6c-10.836,6.049-21.495,10.52-31.753,11.437a6.451,6.451,0,0,1-6.942-5.817q-.026-.248-.032-.5a57.153,57.153,0,0,1,1.593-12.816l18.467-4.811.409,7.208,15.734-7.943a6.445,6.445,0,0,1,8.652,2.977q.128.257.233.524Z" transform="translate(-343.436 -332.144)" fill="#2f2e41"/>
    <ellipse id="Ellipse_32" data-name="Ellipse 32" cx="8.348" cy="8.535" rx="8.348" ry="8.535" transform="translate(71.228 8.291) rotate(-19.413)" fill="#ffb6b6"/>
    <path id="Path_239" data-name="Path 239" d="M477.528,252.443a.67.67,0,0,0,.53.764c.22-.048,6.292,1.4,6.3.984a.647.647,0,0,0,.262-.43l2.71-17.712a.671.671,0,0,0-.16-.546c.085-.462-6.143.077-6.379.031a.636.636,0,0,0-.6.542Z" transform="translate(-381.93 -228.802)" fill="#3f3d56"/>
    <path id="Path_240" data-name="Path 240" d="M486.913,237.836s-5.253.339-5.192.253c-.131.04-.458-.054-.474.167l-2.485,15.572c-.2.393,5.629.953,5.72,1.077.484.11,2.428-16.71,2.618-16.86a.182.182,0,0,0-.149-.207A.175.175,0,0,0,486.913,237.836Z" transform="translate(-382.763 -230.5)" fill="#fbd45c"/>
    <path id="Path_241" data-name="Path 241" d="M433.8,285.549a2.315,2.315,0,0,0-.059-.608,2.264,2.264,0,0,0-2.691-1.713l-3.806.879a2.238,2.238,0,0,0-1.646,2.715,2.305,2.305,0,0,0,.821,1.288,10.25,10.25,0,0,0-5.8,9.658,72.5,72.5,0,0,0,.909,26.329l18.971,1.99,1.524-15.42.557-2.393c.152-.344.293-.683.42-1.022a18.259,18.259,0,0,0,1.316-5.97,13.635,13.635,0,0,0-.53-4.335C442.483,292.445,438.854,288.751,433.8,285.549Z" transform="translate(-343.056 -261.047)" fill="#fbd45c"/>
    <path id="Path_242" data-name="Path 242" d="M460.649,323.159a18.261,18.261,0,0,1-1.316,5.97c-.127.34-.268.679-.42,1.022l-.557,2.393c-5.8-1.823-14.3-14.063-14.3-14.063l4.825-2.833Z" transform="translate(-359.384 -282.925)" opacity="0.2" style="isolation: isolate"/>
    <path id="Path_243" data-name="Path 243" d="M481.73,265.024a3.67,3.67,0,0,0,2.82,4.272,3.526,3.526,0,0,0,.578.068l3.887,12.2,4.067-5.132-4.315-10.8a3.66,3.66,0,0,0-2.876-3.419,3.5,3.5,0,0,0-4.161,2.81Z" transform="translate(-384.723 -246.875)" fill="#ffb6b6"/>
    <path id="Path_244" data-name="Path 244" d="M460.07,305.434l6.036-1.208,3.948,11.99a5.281,5.281,0,0,1-.956,5.055h0a5.06,5.06,0,0,1-5.928,1.362L445,314.363a5.456,5.456,0,0,1-2.869-6.932h0a5.174,5.174,0,0,1,6.823-2.943,5.32,5.32,0,0,1,.516.246l12.594,7.15Z" transform="translate(-357.842 -275.139)" fill="#fbd45c"/>
    <path id="Path_245" data-name="Path 245" d="M384.806,221.339c-2.031-.4-4.08.323-6.012,1.031l-4.2,1.54a9.968,9.968,0,0,0-4.616,2.733c-1.132,1.427-1.271,3.844.2,4.949-3.749-1.53-8.167-.424-11.3,2.089a10.885,10.885,0,0,0-3.522,4.677,11.835,11.835,0,0,0-.248,6.428,35.65,35.65,0,0,0,2.111,6.178c.522,1.267,1.181,2.671,2.456,3.121a3.424,3.424,0,0,0,3.373-1.033,10.054,10.054,0,0,0,2.525-5.91,48.913,48.913,0,0,1,.951-6.5c.6-2.1,1.907-4.147,3.933-4.888a6.487,6.487,0,0,0,2.235,6.948,6.746,6.746,0,0,0,5.311.744,19.725,19.725,0,0,0,5-2.218c1.082-.605,2.309-1.449,2.292-2.713-.016-1.239-1.213-2.075-1.95-3.072a4.706,4.706,0,0,1,.935-6.354l-.234-.11c1.85-.37,3.877-1.346,4.27-3.221C388.745,223.706,386.837,221.736,384.806,221.339Z" transform="translate(-299.233 -219.309)" fill="#2f2e41"/>
    <path id="Path_246" data-name="Path 246" d="M405.271,381.84a14.478,14.478,0,0,1-5.316-1.015A13.764,13.764,0,0,1,392.3,373.5l-10.464-24.048a13.457,13.457,0,0,1,7.516-17.813l.178-.072L410.9,380.7l-.178.072a14.474,14.474,0,0,1-5.455,1.071Z" transform="translate(-316.72 -293.653)" fill="#3f3d56"/>
    <path id="Path_247" data-name="Path 247" d="M914.188,387.571a11.839,11.839,0,0,1-4.6-.931l-.153-.064,18.088-43.006.15.063a11.922,11.922,0,0,1,6.36,15.594l-8.854,21.052A11.927,11.927,0,0,1,914.188,387.571Z" transform="translate(-672.931 -301.738)" fill="#3f3d56"/>
    <path id="Path_248" data-name="Path 248" d="M184.535,375.593a.489.489,0,0,1,.214-.336l17.217-11.366a1.29,1.29,0,0,1-.618-.541h0a1.309,1.309,0,0,1,.478-1.783l1.413-.816a1.309,1.309,0,0,1,1.783.478,1.285,1.285,0,0,1,.165.536l12.428-8.2a7.523,7.523,0,0,1,4.656-4.292v-3.618h4.568v3.618a7.506,7.506,0,0,1,5.22,7.149v.979h-4.568a2.936,2.936,0,1,1-5.873,0h-4.568v-.979a7.543,7.543,0,0,1,.132-1.4l-31.441,20.756,13.06,15.879h.3c1.042,0,2.052.025,3.014.067a1.291,1.291,0,0,1-.075-.5,1.309,1.309,0,0,1,1.371-1.235l1.629.085a1.309,1.309,0,0,1,1.235,1.371,1.283,1.283,0,0,1-.177.578c2.881.306,4.747.728,4.747.943,0,.352-5.012.017-11.286,0a.488.488,0,0,1-.837.147l-.121-.147c-6.255.017-11.246.35-11.246,0,0-.331,4.438-1.154,10.188-1.286L184.64,375.977A.49.49,0,0,1,184.535,375.593Z" transform="translate(-184.529 -303.139)" fill="#f0f0f0"/>
    <path id="Path_249" data-name="Path 249" d="M320.377,438.446V416.135c0-.662,1.025-1.2,2.284-1.2s2.284.539,2.284,1.2v22.311c0,.662-1.025,1.2-2.284,1.2S320.377,439.108,320.377,438.446Z" transform="translate(-276.056 -349.818)" fill="#f0f0f0"/>
    <path id="Path_250" data-name="Path 250" d="M303.627,438.446V416.135c0-.662,1.025-1.2,2.284-1.2s2.284.539,2.284,1.2v22.311c0,.662-1.025,1.2-2.284,1.2S303.627,439.108,303.627,438.446Z" transform="translate(-264.771 -349.818)" fill="#f0f0f0"/>
    <path id="Path_251" data-name="Path 251" d="M286.877,438.446V416.135c0-.662,1.024-1.2,2.284-1.2s2.284.539,2.284,1.2v22.311c0,.662-1.024,1.2-2.284,1.2S286.877,439.108,286.877,438.446Z" transform="translate(-253.486 -349.818)" fill="#f0f0f0"/>
  </g>
</svg>
