<svg viewBox="0 0 195.19 190.2" xmlns="http://www.w3.org/2000/svg"><g transform="translate(-284.44 -51.483)" data-name="Group 17"><path transform="translate(-194.11 -257.95)" d="m551.56 407.43-0.281-0.768c0.5-0.184 1.011-0.382 1.509-0.586l0.311 0.756c-0.507 0.209-1.025 0.41-1.539 0.598z" fill="#e4e4e4" data-name="Path 191"/><path transform="translate(-141.97 -414.3)" d="M481.228,622.053q-.813-.1-1.626-.222l.117-.809q.806.117,1.612.221Z" fill="#e4e4e4" data-name="Path 192"/><path transform="translate(-141.91 -64.514)" d="m567.73 305.65-82.987-29.831a7.893 7.893 0 0 1-4.752-10.086l43.261-120.35a7.893 7.893 0 0 1 10.086-4.752l82.987 29.831a7.892 7.892 0 0 1 4.752 10.086l-43.261 120.35a7.893 7.893 0 0 1-10.086 4.752z" fill="#3f3d56" data-name="Path 193"/><path transform="translate(-155.7 -77.864)" d="m583.36 314.32-83.28-29.936a2.433 2.433 0 0 1-1.465-3.109l43.549-121.15a2.433 2.433 0 0 1 3.109-1.465l83.279 29.935a2.433 2.433 0 0 1 1.465 3.109l-43.548 121.15a2.433 2.433 0 0 1-3.109 1.465z" fill="#fff" data-name="Path 194"/><circle transform="translate(431.12 92.523)" cx=".671" cy=".671" r=".671" fill="#fff" data-name="Ellipse 24"/><circle transform="translate(385.75 134.11)" cx="22.939" cy="22.939" r="22.939" fill="#fbd45c" data-name="Ellipse 25"/><path transform="translate(-308.04 -270.45)" d="m711.2 437.25-3.3-13.319 1.714-0.423 2.727 11.027 19.259-11.263 0.89 1.523z" fill="#fff" data-name="Path 195"/><path transform="translate(-395.75 -302.52)" d="M834.362,497.381a2.054,2.054,0,0,0,.256-2.894,2.03,2.03,0,0,0-.256-.256l-1.527-26.88-4.358.985,2.881,26.252a2.066,2.066,0,0,0,3,2.793Z" fill="#9f616a" data-name="Path 196"/><path transform="translate(-456.57 -311.76)" d="M912.876,510.127a2.054,2.054,0,0,1-.36-2.883,2.025,2.025,0,0,1,.247-.265l.553-26.918,4.391.827-1.929,26.339a2.066,2.066,0,0,1-2.9,2.9Z" fill="#9f616a" data-name="Path 197"/><path transform="translate(-464.89 -477.49)" d="m923.52 715.86h3.419l0.975-7.976h-4.395z" fill="#9f616a" data-name="Path 198"/><path transform="translate(-462.56 -495.8)" d="m920.32 733.05h6.734a4.291 4.291 0 0 1 4.291 4.291v0.14h-11.025z" fill="#2f2e41" data-name="Path 199"/><path transform="translate(-407.95 -463.58)" d="m845.24 701.95h3.419l0.975-13.188h-4.395z" fill="#9f616a" data-name="Path 200"/><path transform="translate(-405.62 -495.8)" d="M842.04,733.053h6.734a4.291,4.291,0,0,1,4.291,4.291v.14H842.04Z" fill="#2f2e41" data-name="Path 201"/><circle transform="translate(445.47 142.05)" cx="5.594" cy="5.594" r="5.594" fill="#9f616a" data-name="Ellipse 26"/><path transform="translate(-454.84 -291.09)" d="m913.01 451.64s2.486 0.207 2.693 1.45a38.411 38.411 0 0 1 0 4.972s1.657 4.972 0 6.215-6.008 1.45-6.008 1.45z" fill="#e4e4e4" data-name="Path 202"/><path transform="translate(-401.2 -366.29)" d="M838.243,555.011l-2.279,3.729s.829,16.367,1.036,16.781a1.247,1.247,0,0,1,.207.829v2.279l.621,19.888s-1.657.829.414,1.45,4.765.829,5.18-1.243.434-19.331.414-19.888l.207-.829,3.315-12.223,7.665,16.988,4.558,19.06s6.9.8,5.655-1.9-4.2-22.757-4.2-22.757a21.5,21.5,0,0,1-.621-2.486c0-.414-.207-.622-.207-1.036S860,572,860,572l-1.45-13.052Z" fill="#2f2e41" data-name="Path 203"/><path transform="translate(-391.44 -281.67)" d="m830.55 438.7s-2.486-0.207-3.107 1.865-5.8 9.944-4.765 10.773 8.909 3.729 9.116 3.522-1.244-16.16-1.244-16.16z" fill="#e4e4e4" data-name="Path 204"/><path transform="translate(-427.65 -235.48)" d="M885.227,379.556a4.672,4.672,0,0,0-1.24-2.351,3.859,3.859,0,0,0-2.473-.974,7.678,7.678,0,0,0-6.925-.393,1.266,1.266,0,0,0-.552-.562l-.2,1.726-.771-.58q-.019.511-.038,1.021l-.707-.607a2.946,2.946,0,0,0,2.088,2.661,9.214,9.214,0,0,0,3.584.278,2.076,2.076,0,0,1,1.675.422,2.639,2.639,0,0,1,.352,1.792c.014.878.916.448,1.368,1.2a1.706,1.706,0,0,1,.351.862,2.015,2.015,0,0,1-.3.8c-.333.687-.994,2.825-.679,3.521l1.754-.982A7.5,7.5,0,0,0,885.227,379.556Z" fill="#2f2e41" data-name="Path 205"/><path transform="translate(-404.51 -273.75)" d="M861.024,446.314s4.143-10.566,3.936-11.395-5.376-4.229-5.376-4.229l-.572-.072a.933.933,0,0,0,.057-.227l.089-.811a.955.955,0,0,0-.845-1.053l-6.569-.72a.955.955,0,0,0-1.053.845l-.077.7c-.346-.086-.362-.12-.362-.12s-5.8.92-7.251,1.335-.207,16.16-.207,16.16-1.036,14.5-1.657,14.917,0,.207-.621,1.864c-.082.219,1.063-1,1.554-.725,3.233,1.823,16.341,6.084,19.578,5.9,1.035-10.8-1.036-14.295-1.036-14.295Z" fill="#e4e4e4" data-name="Path 206"/><g transform="translate(284.44 51.483)" data-name="Group 16"><path transform="translate(-502.54 -325.49)" d="M585.517,429.842c-.427-.348-.849-.711-1.256-1.078l.548-.607c.4.358.809.712,1.225,1.052Z" fill="#e4e4e4" data-name="Path 207"/><path transform="translate(-444.36 -105.87)" d="M504.7,127.775l-.42-.7c.47-.281.948-.559,1.423-.827l.4.712C505.636,127.223,505.164,127.5,504.7,127.775Z" fill="#e4e4e4" data-name="Path 208"/><path transform="translate(-341.58 -319.2)" d="M365.473,438.3l-2.491-2.536,3.054-4.669,5.227-8.7a2.034,2.034,0,1,1,2.694,1.008,2.061,2.061,0,0,1-.21.082l-4.314,9.288Z" fill="#a0616a" data-name="Path 209"/><path transform="translate(-327.28 -359.97)" d="M348.417,484.856a2.807,2.807,0,0,1-2.77,1.254,2.624,2.624,0,0,1-2.2-1.848,2.5,2.5,0,0,1,.276-2.089,64.809,64.809,0,0,1,4.77-6.555l.049-.059,5.183,1.123Z" fill="#fbd45c" data-name="Path 210"/><path transform="translate(-296.64 -51.483)" d="m362.12 75.132-0.61 0.188-5.141-16.7a10.112 10.112 0 0 0-12.64-6.689l-35.376 10.894a10.112 10.112 0 0 0-6.689 12.64l28.2 91.605a10.112 10.112 0 0 0 12.64 6.689l35.377-10.891a10.112 10.112 0 0 0 6.689-12.64l-19.4-63.022 0.61-0.188z" fill="#3f3d56" data-name="Path 211"/><path transform="translate(-304.12 -58.177)" d="m352.37 61.022-4.618 1.422a3.588 3.588 0 0 1-1.72 5.7l-20.267 6.24a3.588 3.588 0 0 1-4.629-3.746l-4.313 1.328a7.551 7.551 0 0 0-5 9.439l28.162 91.471a7.551 7.551 0 0 0 9.439 5l35.547-10.944a7.551 7.551 0 0 0 5-9.439l-28.162-91.476a7.551 7.551 0 0 0-9.439-4.995z" fill="#fff" data-name="Path 212"/><circle transform="translate(28.575 42.021)" cx="18.111" cy="18.111" r="18.111" fill="#fbd45c" data-name="Ellipse 27"/><path transform="translate(-390.18 -184.39)" d="m438.76 253.16-8.961-6.081 0.783-1.153 7.417 5.035 5.364-16.78 1.327 0.424z" fill="#fff" data-name="Path 213"/><path transform="translate(-352.07 -518.8)" d="m377.42 705.84h3.1l1.473-11.945h-4.571z" fill="#a0616a" data-name="Path 214"/><path transform="translate(-349.97 -547.98)" d="m374.52 734.01h6.1a3.886 3.886 0 0 1 3.881 3.888v0.126h-9.985z" fill="#2f2e41" data-name="Path 215"/><path transform="translate(-287.72 -515.58)" d="M288.951,701.283l3.062.463,3.242-11.59-4.014-.683Z" fill="#a0616a" data-name="Path 216"/><path transform="translate(-284.44 -544.12)" d="M285.04,728.7l6.03.911h0a3.887,3.887,0,0,1,3.262,4.424l-.019.125-9.873-1.492Z" fill="#2f2e41" data-name="Path 217"/><path transform="translate(-285.03 -396.21)" d="M304.2,526.941l7.2-1.568,4.039,11.546.126,44.582-5.878-.037-2.457-36.084-15.66,33.342-6.315-.758,13.766-35.742s-.758-6.315,1.642-9.472l-.505-3.284Z" fill="#2f2e41" data-name="Path 218"/><path transform="translate(-317.18 -363.28)" d="M329.587,485.519a2.677,2.677,0,0,1,.738-2.825l1.522-1.384,4.291-.723,2.683-.488,6.362,15.883-12.524,1.426c-.919-.2-1.286-.7-.751-1.7Z" fill="#fbd45c" data-name="Path 219"/><path transform="translate(-357.06 -343.15)" d="m384.63 462.76-0.358-3.536 5.3-1.735 9.519-3.523a2.035 2.035 0 1 1 1.258 2.4l-9.174 4.552z" fill="#a0616a" data-name="Path 220"/><path transform="translate(-332.74 -359.01)" d="M354.534,481.416a2.807,2.807,0,0,1-2.945-.753,2.626,2.626,0,0,1-.565-2.821,2.5,2.5,0,0,1,1.521-1.458,64.926,64.926,0,0,1,7.821-2.134l.075-.015,3.343,4.116Z" fill="#fbd45c" data-name="Path 221"/><circle transform="translate(12.363 106.37)" cx="4.711" cy="4.711" r="4.711" fill="#a0616a" data-name="Ellipse 28"/><path transform="translate(-311.4 -332.62)" d="M324.656,450.41a18.07,18.07,0,0,1-2.185-.133l-.1-.012-.759-4.12a6.95,6.95,0,0,1,5.193-8.012.646.646,0,0,1,.643.2l.181-.063a5.587,5.587,0,0,1,7.115,3.436h0l.045.129-1.208.421a2.681,2.681,0,0,0-1.415,3.912l1.235,2.055-.132.066A19.085,19.085,0,0,1,324.656,450.41Z" fill="#2f2e41" data-name="Path 222"/></g></g></svg>
