<svg xmlns="http://www.w3.org/2000/svg" width="195.189" height="190.199" viewBox="0 0 195.189 190.199">
  <g id="Group_17" data-name="Group 17" transform="translate(-284.44 -51.483)">
    <path id="Path_191" data-name="Path 191" d="M551.559,407.433l-.281-.768c.5-.184,1.011-.382,1.509-.586l.311.756C552.591,407.044,552.073,407.245,551.559,407.433Z" transform="translate(-194.109 -257.948)" fill="#e4e4e4"/>
    <path id="Path_192" data-name="Path 192" d="M481.228,622.053q-.813-.1-1.626-.222l.117-.809q.806.117,1.612.221Z" transform="translate(-141.969 -414.305)" fill="#e4e4e4"/>
    <path id="Path_193" data-name="Path 193" d="M567.731,305.652l-82.987-29.831a7.893,7.893,0,0,1-4.752-10.086l43.261-120.35a7.893,7.893,0,0,1,10.086-4.752l82.987,29.831a7.892,7.892,0,0,1,4.752,10.086L577.817,300.9A7.893,7.893,0,0,1,567.731,305.652Z" transform="translate(-141.914 -64.514)" fill="#3f3d56"/>
    <path id="Path_194" data-name="Path 194" d="M583.361,314.322l-83.28-29.936a2.433,2.433,0,0,1-1.465-3.109L542.165,160.13a2.433,2.433,0,0,1,3.109-1.465L628.553,188.6a2.433,2.433,0,0,1,1.465,3.109L586.47,312.857A2.433,2.433,0,0,1,583.361,314.322Z" transform="translate(-155.697 -77.864)" fill="#fff"/>
    <circle id="Ellipse_24" data-name="Ellipse 24" cx="0.671" cy="0.671" r="0.671" transform="translate(431.115 92.523)" fill="#fff"/>
    <circle id="Ellipse_25" data-name="Ellipse 25" cx="22.939" cy="22.939" r="22.939" transform="translate(385.746 134.109)" fill="#fbd45c"/>
    <path id="Path_195" data-name="Path 195" d="M711.2,437.246,707.9,423.927l1.714-.423,2.727,11.027L731.6,423.268l.89,1.523Z" transform="translate(-308.044 -270.451)" fill="#fff"/>
    <path id="Path_196" data-name="Path 196" d="M834.362,497.381a2.054,2.054,0,0,0,.256-2.894,2.03,2.03,0,0,0-.256-.256l-1.527-26.88-4.358.985,2.881,26.252a2.066,2.066,0,0,0,3,2.793Z" transform="translate(-395.754 -302.519)" fill="#9f616a"/>
    <path id="Path_197" data-name="Path 197" d="M912.876,510.127a2.054,2.054,0,0,1-.36-2.883,2.025,2.025,0,0,1,.247-.265l.553-26.918,4.391.827-1.929,26.339a2.066,2.066,0,0,1-2.9,2.9Z" transform="translate(-456.573 -311.765)" fill="#9f616a"/>
    <path id="Path_198" data-name="Path 198" d="M923.516,715.861h3.419l.975-7.976h-4.395Z" transform="translate(-464.889 -477.493)" fill="#9f616a"/>
    <path id="Path_199" data-name="Path 199" d="M920.317,733.053h6.734a4.291,4.291,0,0,1,4.291,4.291v.14H920.317Z" transform="translate(-462.563 -495.802)" fill="#2f2e41"/>
    <path id="Path_200" data-name="Path 200" d="M845.239,701.952h3.419l.975-13.188h-4.395Z" transform="translate(-407.947 -463.584)" fill="#9f616a"/>
    <path id="Path_201" data-name="Path 201" d="M842.04,733.053h6.734a4.291,4.291,0,0,1,4.291,4.291v.14H842.04Z" transform="translate(-405.621 -495.802)" fill="#2f2e41"/>
    <circle id="Ellipse_26" data-name="Ellipse 26" cx="5.594" cy="5.594" r="5.594" transform="translate(445.471 142.047)" fill="#9f616a"/>
    <path id="Path_202" data-name="Path 202" d="M913.009,451.637s2.486.207,2.693,1.45a38.411,38.411,0,0,1,0,4.972s1.657,4.972,0,6.215-6.008,1.45-6.008,1.45Z" transform="translate(-454.835 -291.088)" fill="#e4e4e4"/>
    <path id="Path_203" data-name="Path 203" d="M838.243,555.011l-2.279,3.729s.829,16.367,1.036,16.781a1.247,1.247,0,0,1,.207.829v2.279l.621,19.888s-1.657.829.414,1.45,4.765.829,5.18-1.243.434-19.331.414-19.888l.207-.829,3.315-12.223,7.665,16.988,4.558,19.06s6.9.8,5.655-1.9-4.2-22.757-4.2-22.757a21.5,21.5,0,0,1-.621-2.486c0-.414-.207-.622-.207-1.036S860,572,860,572l-1.45-13.052Z" transform="translate(-401.201 -366.287)" fill="#2f2e41"/>
    <path id="Path_204" data-name="Path 204" d="M830.55,438.7s-2.486-.207-3.107,1.865-5.8,9.944-4.765,10.773,8.909,3.729,9.116,3.522S830.55,438.7,830.55,438.7Z" transform="translate(-391.437 -281.673)" fill="#e4e4e4"/>
    <path id="Path_205" data-name="Path 205" d="M885.227,379.556a4.672,4.672,0,0,0-1.24-2.351,3.859,3.859,0,0,0-2.473-.974,7.678,7.678,0,0,0-6.925-.393,1.266,1.266,0,0,0-.552-.562l-.2,1.726-.771-.58q-.019.511-.038,1.021l-.707-.607a2.946,2.946,0,0,0,2.088,2.661,9.214,9.214,0,0,0,3.584.278,2.076,2.076,0,0,1,1.675.422,2.639,2.639,0,0,1,.352,1.792c.014.878.916.448,1.368,1.2a1.706,1.706,0,0,1,.351.862,2.015,2.015,0,0,1-.3.8c-.333.687-.994,2.825-.679,3.521l1.754-.982A7.5,7.5,0,0,0,885.227,379.556Z" transform="translate(-427.649 -235.482)" fill="#2f2e41"/>
    <path id="Path_206" data-name="Path 206" d="M861.024,446.314s4.143-10.566,3.936-11.395-5.376-4.229-5.376-4.229l-.572-.072a.933.933,0,0,0,.057-.227l.089-.811a.955.955,0,0,0-.845-1.053l-6.569-.72a.955.955,0,0,0-1.053.845l-.077.7c-.346-.086-.362-.12-.362-.12s-5.8.92-7.251,1.335-.207,16.16-.207,16.16-1.036,14.5-1.657,14.917,0,.207-.621,1.864c-.082.219,1.063-1,1.554-.725,3.233,1.823,16.341,6.084,19.578,5.9,1.035-10.8-1.036-14.295-1.036-14.295Z" transform="translate(-404.508 -273.75)" fill="#e4e4e4"/>
    <g id="Group_16" data-name="Group 16" transform="translate(284.44 51.483)">
      <path id="Path_207" data-name="Path 207" d="M585.517,429.842c-.427-.348-.849-.711-1.256-1.078l.548-.607c.4.358.809.712,1.225,1.052Z" transform="translate(-502.542 -325.491)" fill="#e4e4e4"/>
      <path id="Path_208" data-name="Path 208" d="M504.7,127.775l-.42-.7c.47-.281.948-.559,1.423-.827l.4.712C505.636,127.223,505.164,127.5,504.7,127.775Z" transform="translate(-444.361 -105.869)" fill="#e4e4e4"/>
      <path id="Path_209" data-name="Path 209" d="M365.473,438.3l-2.491-2.536,3.054-4.669,5.227-8.7a2.034,2.034,0,1,1,2.694,1.008,2.061,2.061,0,0,1-.21.082l-4.314,9.288Z" transform="translate(-341.575 -319.204)" fill="#a0616a"/>
      <path id="Path_210" data-name="Path 210" d="M348.417,484.856a2.807,2.807,0,0,1-2.77,1.254,2.624,2.624,0,0,1-2.2-1.848,2.5,2.5,0,0,1,.276-2.089,64.809,64.809,0,0,1,4.77-6.555l.049-.059,5.183,1.123Z" transform="translate(-327.278 -359.973)" fill="#fbd45c"/>
      <path id="Path_211" data-name="Path 211" d="M362.121,75.132l-.61.188-5.141-16.7a10.112,10.112,0,0,0-12.64-6.689h0L308.354,62.825a10.112,10.112,0,0,0-6.689,12.64h0l28.2,91.605a10.112,10.112,0,0,0,12.64,6.689h0l35.377-10.891a10.112,10.112,0,0,0,6.689-12.64h0l-19.4-63.022.61-.188Z" transform="translate(-296.643 -51.483)" fill="#3f3d56"/>
      <path id="Path_212" data-name="Path 212" d="M352.371,61.022l-4.618,1.422a3.588,3.588,0,0,1-1.72,5.7l-20.267,6.24a3.588,3.588,0,0,1-4.629-3.746l-4.313,1.328a7.551,7.551,0,0,0-5,9.439l28.162,91.471a7.551,7.551,0,0,0,9.439,5h0l35.547-10.944a7.551,7.551,0,0,0,5-9.439h0L361.81,66.017A7.551,7.551,0,0,0,352.371,61.022Z" transform="translate(-304.119 -58.177)" fill="#fff"/>
      <circle id="Ellipse_27" data-name="Ellipse 27" cx="18.111" cy="18.111" r="18.111" transform="translate(28.575 42.021)" fill="#fbd45c"/>
      <path id="Path_213" data-name="Path 213" d="M438.761,253.161,429.8,247.08l.783-1.153L438,250.962l5.364-16.78,1.327.424Z" transform="translate(-390.178 -184.386)" fill="#fff"/>
      <path id="Path_214" data-name="Path 214" d="M377.416,705.843h3.1l1.473-11.945h-4.571Z" transform="translate(-352.074 -518.802)" fill="#a0616a"/>
      <path id="Path_215" data-name="Path 215" d="M374.519,734.012h6.1A3.886,3.886,0,0,1,384.5,737.9v.126h-9.985Z" transform="translate(-349.967 -547.982)" fill="#2f2e41"/>
      <path id="Path_216" data-name="Path 216" d="M288.951,701.283l3.062.463,3.242-11.59-4.014-.683Z" transform="translate(-287.722 -515.583)" fill="#a0616a"/>
      <path id="Path_217" data-name="Path 217" d="M285.04,728.7l6.03.911h0a3.887,3.887,0,0,1,3.262,4.424l-.019.125-9.873-1.492Z" transform="translate(-284.44 -544.12)" fill="#2f2e41"/>
      <path id="Path_218" data-name="Path 218" d="M304.2,526.941l7.2-1.568,4.039,11.546.126,44.582-5.878-.037-2.457-36.084-15.66,33.342-6.315-.758,13.766-35.742s-.758-6.315,1.642-9.472l-.505-3.284Z" transform="translate(-285.03 -396.21)" fill="#2f2e41"/>
      <path id="Path_219" data-name="Path 219" d="M329.587,485.519a2.677,2.677,0,0,1,.738-2.825l1.522-1.384,4.291-.723,2.683-.488,6.362,15.883-12.524,1.426c-.919-.2-1.286-.7-.751-1.7Z" transform="translate(-317.182 -363.276)" fill="#fbd45c"/>
      <path id="Path_220" data-name="Path 220" d="M384.632,462.763l-.358-3.536,5.3-1.735,9.519-3.523a2.035,2.035,0,1,1,1.258,2.4l-9.174,4.552Z" transform="translate(-357.063 -343.15)" fill="#a0616a"/>
      <path id="Path_221" data-name="Path 221" d="M354.534,481.416a2.807,2.807,0,0,1-2.945-.753,2.626,2.626,0,0,1-.565-2.821,2.5,2.5,0,0,1,1.521-1.458,64.926,64.926,0,0,1,7.821-2.134l.075-.015,3.343,4.116Z" transform="translate(-332.738 -359.01)" fill="#fbd45c"/>
      <circle id="Ellipse_28" data-name="Ellipse 28" cx="4.711" cy="4.711" r="4.711" transform="translate(12.363 106.37)" fill="#a0616a"/>
      <path id="Path_222" data-name="Path 222" d="M324.656,450.41a18.07,18.07,0,0,1-2.185-.133l-.1-.012-.759-4.12a6.95,6.95,0,0,1,5.193-8.012.646.646,0,0,1,.643.2l.181-.063a5.587,5.587,0,0,1,7.115,3.436h0l.045.129-1.208.421a2.681,2.681,0,0,0-1.415,3.912l1.235,2.055-.132.066A19.085,19.085,0,0,1,324.656,450.41Z" transform="translate(-311.396 -332.619)" fill="#2f2e41"/>
    </g>
  </g>
</svg>
