<svg xmlns="http://www.w3.org/2000/svg" width="219.167" height="162.837" viewBox="0 0 219.167 162.837"><g transform="translate(0)"><path d="M316.87,664.8a14.036,14.036,0,0,1,28.072,0" transform="translate(-316.87 -502.438)" fill="#f2f2f2"/><path d="M353.249,674.42a.379.379,0,0,1-.379-.379v-7.4a.379.379,0,0,1,.759,0v7.4a.379.379,0,0,1-.379.379Z" transform="translate(-339.214 -512.058)" fill="#ccc"/><path d="M345.8,673.43a.378.378,0,0,1-.247-.091L341,669.431a.379.379,0,0,1,.494-.576l4.552,3.907a.379.379,0,0,1-.247.667Z" transform="translate(-331.766 -513.609)" fill="#ccc"/><path d="M430.87,664.8a14.036,14.036,0,0,1,28.072,0" transform="translate(-387.624 -502.438)" fill="#f2f2f2"/><path d="M467.25,674.42a.379.379,0,0,1-.379-.379v-7.4a.379.379,0,0,1,.759,0v7.4A.379.379,0,0,1,467.25,674.42Z" transform="translate(-409.967 -512.058)" fill="#ccc"/><path d="M459.8,673.43a.378.378,0,0,1-.247-.091L455,669.431a.379.379,0,1,1,.494-.576l4.552,3.907a.379.379,0,0,1-.247.667Z" transform="translate(-402.52 -513.609)" fill="#ccc"/><path d="M568.359,440.207a4.075,4.075,0,0,0,2.824-5.574l15.023-33.941-8.594-2.165L565.548,432.57a4.1,4.1,0,0,0,2.812,7.636Z" transform="translate(-469.822 -345.887)" fill="#a0616a"/><path d="M596.911,404.161l-8.358-3.912a1.827,1.827,0,0,1-.749-2.664l5.08-7.672a5.075,5.075,0,1,1,9.18,4.33l-2.627,8.787a1.827,1.827,0,0,1-2.525,1.131Z" transform="translate(-484.836 -338.734)" fill="#fbd45c"/><path d="M535.228,415.969l9.215,6.524a.692.692,0,0,0,.812,0l2.49-1.87a.683.683,0,0,0,.045-1.067l-7.091-6.323a.7.7,0,0,0-.692-.134l-4.614,1.651a.7.7,0,0,0-.165,1.218Z" transform="translate(-452.214 -354.907)" fill="#3f3d56"/><path d="M537.742,416.237l8.3,5.88a.244.244,0,0,0,.29,0l2.24-1.682a.236.236,0,0,0,.02-.371l-6.4-5.7a.249.249,0,0,0-.246-.046L537.8,415.8a.248.248,0,0,0-.056.432Z" transform="translate(-453.891 -355.678)" fill="#fff"/><path d="M336.007,436.983h-4.651l-2.212-17.939h6.864Z" transform="translate(-219.408 -278.654)" fill="#a0616a"/><path d="M602.828,679.156h-15v-.19a5.837,5.837,0,0,1,5.837-5.837h9.159Z" transform="translate(-485.042 -516.318)" fill="#2f2e41"/><path d="M377.007,436.983h-4.651l-2.212-17.939h6.864Z" transform="translate(-244.854 -278.654)" fill="#a0616a"/><path d="M643.828,679.156h-15v-.19a5.837,5.837,0,0,1,5.837-5.837h9.159Z" transform="translate(-510.489 -516.318)" fill="#2f2e41"/><path d="M617.759,530.056q-.063,0-.127,0l-5.348-.4a1.717,1.717,0,0,1-1.542-1.339l-9.287-50.974a.569.569,0,0,0-1.123.166l3.3,50.223a1.707,1.707,0,0,1-1.7,1.841h-4.073a1.707,1.707,0,0,1-1.59-1.085c-10.243-26.822-6.533-79.378-6.5-79.907l.379-.379h0l20.4,3.523.043.042c6.97,5.12,9.987,65.078,8.879,76.483a2.043,2.043,0,0,1-.5,1.315A1.709,1.709,0,0,1,617.759,530.056Z" transform="translate(-485.818 -376.717)" fill="#2f2e41"/><circle cx="9.317" cy="9.317" r="9.317" transform="translate(96.979 22.105)" fill="#a0616a"/><path d="M611.462,408.46a1.413,1.413,0,0,1-.282-.028l-23.929-3.07a2,2,0,0,1-1.422-2.127l2.29-12.642c-3.035-3.794-.167-13.591,1.687-16.068l-.717-1.941a2.409,2.409,0,0,1-.032-1.566,1.921,1.921,0,0,1,.9-1.134l9.711-5.16a1.61,1.61,0,0,1,2.252,1.043l1.9,5.154-.029.015c4.56,2.444,8.6,4.862,5.566,17.76l3.8,17.813a2.208,2.208,0,0,1-.633,1.5,1.545,1.545,0,0,1-1.073.454Z" transform="translate(-483.798 -324.797)" fill="#fbd45c"/><path d="M553.456,417.181a3.988,3.988,0,0,1,.423.466l18.769-1.3,2.013-4.1,6.589,2.229-2.859,7.61a3.035,3.035,0,0,1-3.07,1.959l-21.342-1.619a3.982,3.982,0,1,1-.523-5.245Z" transform="translate(-459.554 -354.402)" fill="#a0616a"/><path d="M613.889,400.518a1.705,1.705,0,0,1,.055-1.42l3.87-7.644a4.741,4.741,0,1,1,9.005,2.969l-1.491,8.465a1.707,1.707,0,0,1-2.22,1.324l-8.18-2.723A1.705,1.705,0,0,1,613.889,400.518Z" transform="translate(-501.135 -339.475)" fill="#fbd45c"/><path d="M531,394.189a.416.416,0,0,1-.567,0l-.218-.2c-1.782-1.635-2.811-2.7-2.811-4.022a1.765,1.765,0,0,1,1.756-1.915,2.023,2.023,0,0,0,3.114,0,1.763,1.763,0,0,1,1.756,1.915c0,1.322-1.029,2.384-2.811,4.022Z" transform="translate(-447.539 -339.388)" fill="#ff6584"/><path d="M491.3,325.267a.8.8,0,0,1-1.087,0l-.417-.377c-3.415-3.133-5.387-5.169-5.387-7.707a3.382,3.382,0,0,1,3.364-3.67,3.928,3.928,0,0,1,2.984,1.4,3.922,3.922,0,0,1,2.982-1.4,3.377,3.377,0,0,1,3.364,3.67c0,2.533-1.972,4.568-5.387,7.707Z" transform="translate(-419.435 -284.821)" fill="#ff6584"/><path d="M489.356,226.066a1.036,1.036,0,0,1-1.412,0l-.542-.49c-4.435-4.069-7-6.713-7-10.01,0-2.689,1.7-4.767,4.37-4.767a5.1,5.1,0,0,1,3.876,1.819,5.1,5.1,0,0,1,3.873-1.819c2.672,0,4.37,2.071,4.37,4.767,0,3.289-2.561,5.933-7,10.01Z" transform="translate(-416.851 -210.799)" fill="#ff6584"/><ellipse cx="7.587" cy="7.587" rx="7.587" ry="7.587" transform="translate(103.942 8.891)" fill="#2f2e41"/><path d="M567.823,323.753a3.971,3.971,0,0,1-2.2-.184,2.608,2.608,0,0,1-1.3-1.967c-1.414-9.392,6.573-8.62,7.518-9.027a10.353,10.353,0,0,0,1.67-1.219,7.809,7.809,0,0,1,4.364-.96,12.581,12.581,0,0,1,5.3.648,7.942,7.942,0,0,1,3.524,3.249,16.4,16.4,0,0,1,1.748,4.527,11.3,11.3,0,0,1,.3,5.549,6.862,6.862,0,0,1-6.229,4.992,5.134,5.134,0,0,0-2.71-5.624,7.831,7.831,0,0,0-5.165-.615,22.74,22.74,0,0,1-3.426.427C570.086,323.591,568.73,323.657,567.823,323.753Z" transform="translate(-470.348 -291.179)" fill="#2f2e41"/><path d="M786.063,321.519c0-18.309-14.852-61.755-33.174-61.755s-33.174,43.446-33.174,61.755a33.174,33.174,0,0,0,66.347,0Z" transform="translate(-566.895 -259.764)" fill="#f2f2f2"/><path d="M806.543,515.573a.379.379,0,0,1-.379-.379V410.44a.379.379,0,0,1,.759,0V515.194a.379.379,0,0,1-.379.379Z" transform="translate(-620.549 -353.045)" fill="#ccc"/><path d="M775.328,411.962a.378.378,0,0,1-.287-.131l-19.079-22a.379.379,0,0,1,.573-.5l19.079,22a.379.379,0,0,1-.286.628Z" transform="translate(-589.335 -340.099)" fill="#ccc"/><path d="M806.543,463.7a.379.379,0,0,1-.268-.648l10.841-10.841a.379.379,0,0,1,.536.536l-10.841,10.841A.378.378,0,0,1,806.543,463.7Z" transform="translate(-620.549 -379.134)" fill="#ccc"/><path d="M806.543,573.7a.379.379,0,0,1-.268-.648l10.841-10.841a.379.379,0,1,1,.536.536l-10.841,10.841A.378.378,0,0,1,806.543,573.7Z" transform="translate(-620.55 -447.406)" fill="#ccc"/></g></svg>