<svg xmlns="http://www.w3.org/2000/svg" width="104.15" height="141.395" viewBox="0 0 104.15 141.395"><g transform="translate(-419.208 -135.784)"><rect width="21.047" height="4.465" transform="matrix(1, -0.013, 0.013, 1, 426.686, 269.839)" fill="#e6e6e6"/><path d="M487.2,433.451l-3.006-.009-1.858-3.315,2.008-3.3,2.792.008a5.421,5.421,0,1,0,.063,6.619Z" transform="translate(-31.933 -158.424)" fill="#e6e6e6"/><path d="M419.208,433.451l3.006-.009,1.858-3.315-2.008-3.3-2.792.008a5.421,5.421,0,1,1-.063,6.619Z" transform="translate(0 -158.424)" fill="#e6e6e6"/><circle cx="14.909" cy="14.909" r="14.909" transform="translate(459.09 148.969)" fill="#2f2e41"/><path d="M553.859,377.852l1.148,5.418,21.446-1.85-1.695-8Z" transform="translate(-73.819 -130.28)" fill="#ffb8b8"/><path d="M545.787,398.353l-3.609-17.029h0l6.579-1.394h0l2.215,10.45a6.726,6.726,0,0,1-5.185,7.974Z" transform="translate(-67.415 -133.847)" fill="#2f2e41"/><path d="M496.464,371.289l-2.414,4.985-20.377-6.938,3.563-7.357Z" transform="translate(-29.859 -124.006)" fill="#ffb8b8"/><path d="M510.99,388.309l4.655-9.614h0l6.053,2.931h0l-7.586,15.667h0a6.725,6.725,0,0,1-3.123-8.984Z" transform="translate(-49.948 -133.17)" fill="#2f2e41"/><path d="M430.384,309.612a4.853,4.853,0,0,0,5.742-4.735l33.6-30.979-8.344-6.463-30.421,32.5a4.879,4.879,0,0,0-.576,9.674Z" transform="translate(-3.924 -72.175)" fill="#ffb8b8"/><circle cx="11.096" cy="11.096" r="11.096" transform="translate(461.031 157.267)" fill="#ffb8b8"/><path d="M516.47,284.505c-7.783,0-17.157-1.639-22.94-8.347l-.131-.151.134-.148c.044-.048,4.3-4.91.05-13.581l-5.841,1.8-5.814-7.675,3.221-9.663,13.182-10.619a12.083,12.083,0,0,1,6.6-2.615,36.239,36.239,0,0,0,12.553-3.575,12.606,12.606,0,0,1,5.783-1.265l.259.008a4.5,4.5,0,0,1,4.366,4.62c0,.073-.006.145-.011.217-.894,11.579-2.472,39.55,2.165,49.181l.12.249-.268.068A61.5,61.5,0,0,1,516.47,284.505Z" transform="translate(-34.385 -50.917)" fill="#fbd45c"/><path d="M470.082,332.976s-29.365-2.711-32.528,5.873.452,12.65,5.873,14.457,18.523,4.066,18.523,4.066l5.873-7.228,15.36.9s17.115,9.927,21.848,20.544a13.9,13.9,0,0,0,11.645,8.24c3.794.264,7.167-1.169,7.167-7.1,0-13.553-18.975-32.98-18.975-32.98Z" transform="translate(-9.411 -107.883)" fill="#2f2e41"/><path d="M461.486,362.451s7.68-2.259,19.878,3.614" transform="translate(-23.178 -124.03)" fill="#2f2e41"/><path d="M511.843,184.568a33,33,0,0,0,14.276,4.7l-1.5-1.8a11.053,11.053,0,0,0,3.416.678,3.741,3.741,0,0,0,3.049-1.427,3.48,3.48,0,0,0,.233-3.214,6.591,6.591,0,0,0-2.073-2.592,12.344,12.344,0,0,0-11.489-2.053,7.377,7.377,0,0,0-3.431,2.2,4.173,4.173,0,0,0-.842,3.868" transform="translate(-50.785 -23.281)" fill="#2f2e41"/><path d="M540.309,152.418a34.1,34.1,0,0,1,8.646-11.982,17.456,17.456,0,0,1,8.333-4.5c3.151-.551,6.7.393,8.634,2.941,1.58,2.084,1.876,4.876,1.7,7.485s-.758,5.194-.7,7.808a16.024,16.024,0,0,0,22.827,14.164c-2.721,1.5-4.84,3.884-7.366,5.7s-5.856,3.054-8.725,1.857c-3.035-1.267-4.427-4.707-5.514-7.811L563.3,154.235a18.613,18.613,0,0,0-3.371-6.616c-1.682-1.841-4.412-2.962-6.727-2.037-1.755.7-2.9,2.375-3.9,3.977s-2.059,3.307-3.751,4.147-4.2.323-4.754-1.484" transform="translate(-66.391)" fill="#2f2e41"/><rect width="4.465" height="21.047" transform="translate(470.494 222.744) rotate(-45.741)" fill="#e6e6e6"/><path d="M564.972,352.652a4.465,4.465,0,1,0,6.314-.082A4.465,4.465,0,0,0,564.972,352.652Zm4.568,4.451a1.913,1.913,0,1,1-.035-2.706,1.913,1.913,0,0,1,.035,2.706Z" transform="translate(-79.217 -118.153)" fill="#e6e6e6"/><path d="M523.807,307.866,525.926,310l-1.03,3.658-3.756.916-1.969-1.981a5.421,5.421,0,1,0,4.636-4.725Z" transform="translate(-54.781 -94.311)" fill="#e6e6e6"/><path d="M542.695,310.028a5.272,5.272,0,0,1-.573-.032,4.97,4.97,0,0,1,.565-9.908,4.784,4.784,0,0,1,.662.05l15.17-16.149-1.583-5.279,7.953-3.565,2.229,5.448a9.257,9.257,0,0,1-2.791,10.695l-16.7,13.283a4.6,4.6,0,0,1,.027.487,4.98,4.98,0,0,1-1.655,3.7A4.914,4.914,0,0,1,542.695,310.028Z" transform="translate(-64.969 -76.401)" fill="#ffb8b8"/><path d="M574.986,233.021h0a4.271,4.271,0,0,1,5.637,2.168q.036.08.068.161l7.848,19.808-12.2,8.132Z" transform="translate(-85.401 -53.105)" fill="#fbd45c"/></g></svg>