<svg viewBox="0 0 95 137" xmlns="http://www.w3.org/2000/svg"><g transform="translate(-166.55 -232.03)"><path transform="translate(-129 -36.794)" d="m368.79 289.58a4.378 4.378 0 0 1-1.916 5.778 4.128 4.128 0 0 1-0.639 0.254l-0.717 15.234-6.209-4.679 1.633-13.749a4.356 4.356 0 0 1 2.241-4.812 4.134 4.134 0 0 1 5.563 1.881c0.015 0.031 0.03 0.062 0.044 0.093z" fill="#9e616a"/><path transform="translate(-160.36 -226.82)" d="m409.22 589.36 4.014-0.817-1.149-16.341-5.924 1.206z" fill="#9e616a"/><path transform="translate(-163.96 -255.42)" d="M411.534,616.828l7.9-1.609h0a4.98,4.98,0,0,1,3.854.8,5.266,5.266,0,0,1,2.179,3.37l.032.169-12.943,2.635Z" fill="#2f2e41"/><path transform="translate(-138.08 -233.4)" d="m372.86 598.34h4.092l1.946-16.26h-6.039z" fill="#9e616a"/><path transform="translate(-135.96 -263.16)" d="m369.71 626.73h8.058a5.028 5.028 0 0 1 3.631 1.55 5.339 5.339 0 0 1 1.5 3.741v0.172h-13.189z" fill="#2f2e41"/><path transform="translate(-9.163 -172.61)" d="M188.46,502.661a8.351,8.351,0,0,1-8.22-8.477,8.686,8.686,0,0,1,.646-3.288l1.211.528a7.2,7.2,0,0,0,3.684,9.324,6.722,6.722,0,0,0,5.239.053l.488,1.258A7.972,7.972,0,0,1,188.46,502.661Z" fill="#3f3d56"/><path transform="translate(-30.784 -185.64)" d="m222.74 515.52h-10.192v-2.71l8.219-2.371z" fill="#3f3d56"/><path transform="translate(-44.089 -190.38)" d="m232.43 517.55h26.96a5.676 5.676 0 0 1-5.589 5.759h-15.781a5.676 5.676 0 0 1-5.589-5.759z" fill="#3f3d56"/><path transform="translate(-35.262 -180.98)" d="m253.1 511.57h-29.917a4.067 4.067 0 0 1 0-8.13h29.917a4.067 4.067 0 0 1 0 8.13z" fill="#cacaca"/><path transform="translate(-83.116 -55.328)" d="M320.276,323.048l-.057,2.738-.254,12.3a6.167,6.167,0,0,1-6.2,6.134h-.006a5.987,5.987,0,0,1-3.989-1.651L292.764,326.08a6.505,6.505,0,0,1-.28-9.146,6.407,6.407,0,0,1,.71-.655,6.078,6.078,0,0,1,8.334.752l11.231,13.02,1.079-8.182Z" fill="#e6e6e6"/><path transform="translate(-33.982 -141.84)" d="M275.319,500.093l-8.04.753-4.385-32.758c-14.456,2.505-28.094,3.308-39.89.277a7.689,7.689,0,0,1-5.453-9.283q.069-.289.159-.571a68.284,68.284,0,0,1,6.811-13.768L243.89,451.9l.731,3.012,20.659-2.694a7.631,7.631,0,0,1,8.468,6.712c0,.019,0,.038.007.058q.042.339.055.681Z" fill="#2f2e41"/><path transform="translate(-38.092 -133.47)" d="M291.652,484.818l-8.04.753-14.578-30.048c-14.456,2.506-28.093,3.308-39.889.277a7.69,7.69,0,0,1-5.453-9.283q.068-.289.159-.571a68.287,68.287,0,0,1,6.811-13.768l22.475,1.906-2.375,8.26,20.659-2.694a7.631,7.631,0,0,1,8.468,6.712c0,.019,0,.038.007.057q.042.339.054.681Z" fill="#2f2e41"/><ellipse transform="translate(205.81 234.61)" cx="9.867" cy="10.166" rx="9.867" ry="10.166" fill="#9e616a"/><path transform="translate(-122.01 -23.589)" d="M348.958,285.1a.8.8,0,0,0,.29,1.068c.264.033,6.464,4.063,6.641,3.6a.766.766,0,0,0,.46-.379l9.979-18.825a.8.8,0,0,0,.036-.676c.276-.485-6.879-2.345-7.123-2.491a.75.75,0,0,0-.884.37Z" fill="#3f3d56"/><path transform="translate(-123.33 -25.436)" d="M366.209,272.01s-5.988-1.7-5.887-1.771c-.162-.006-.49-.242-.594,0l-8.888,16.51c-.382.36,5.9,3.3,5.953,3.474.5.315,9.271-17.812,9.541-17.905a.218.218,0,0,0-.084-.291A.234.234,0,0,0,366.209,272.01Z" fill="#fbd45c"/><path transform="translate(-52.265 -48.693)" d="m273.46 309.25a2.78 2.78 0 0 0 0.173-0.707 2.692 2.692 0 0 0-2.327-2.989l-4.587-0.519a2.65 2.65 0 0 0-2.9 2.381v0.017a2.764 2.764 0 0 0 0.409 1.772 12.139 12.139 0 0 0-10.258 8.554 86.852 86.852 0 0 0-9.33 29.94l20.366 9.747 7.756-16.721 1.561-2.468c0.3-0.326 0.594-0.651 0.87-0.982a21.778 21.778 0 0 0 3.812-6.186 16.347 16.347 0 0 0 1.113-5.08c0.309-5.575-2.286-11.162-6.658-16.759z" fill="#e4e4e4"/><path transform="translate(-88.092 -74.633)" d="M314.836,357.024a21.793,21.793,0,0,1-3.812,6.186c-.275.331-.566.656-.87.982l-1.561,2.468c-5.754-4.347-10.416-21.462-10.416-21.462l6.492-1.273Z" opacity=".2" style="isolation:isolate"/><path transform="translate(-128.56 -43.611)" d="m359.23 299.5a4.392 4.392 0 0 0 1.465 5.916 4.143 4.143 0 0 0 0.618 0.305l-0.46 15.244 6.55-4.156-0.568-13.839a4.375 4.375 0 0 0-1.863-4.98 4.121 4.121 0 0 0-5.685 1.41c-0.019 0.038-0.039 0.071-0.057 0.1z" fill="#9e616a"/><path transform="translate(-86.714 -65.166)" d="M318.435,336.771l7.2,1.032-.31,15.034a6.3,6.3,0,0,1-3.051,5.3h0a5.944,5.944,0,0,1-7.143-.817l-17.006-16.486a6.536,6.536,0,0,1-.475-8.924h0a6.082,6.082,0,0,1,8.618-.731c.048.041.1.083.143.126a6.277,6.277,0,0,1,.479.481l11.229,13.02Z" fill="#e6e6e6"/><path transform="translate(0 -82.066)" d="m172.8 404.2a6.351 6.351 0 0 1-6.247-6.436v-36.246a6.249 6.249 0 1 1 12.494-0.278v0.278 36.246a6.351 6.351 0 0 1-6.247 6.436z" fill="#cacaca"/><path transform="translate(-47.416 -198.93)" d="m259.43 563.55h-7.562v-33.18h-2.63v33.18h-7.562a4.341 4.341 0 0 0-4.274 4.4h26.3a4.341 4.341 0 0 0-4.272-4.4z" fill="#3f3d56"/><path transform="translate(-30.702 -.106)" d="M254.961,233.363c-2.108-1.25-4.675-1.253-7.107-1.222l-5.287.068c-2.139.028-4.4.089-6.219,1.243s-2.926,3.815-1.723,5.638c-3.578-3.2-8.937-3.709-13.423-2.129a12.858,12.858,0,0,0-5.763,3.859,14.161,14.161,0,0,0-2.8,7.123,42.814,42.814,0,0,0-.074,7.776c.084,1.63.267,3.469,1.512,4.478a4.02,4.02,0,0,0,4.166.175c2.326-1.073,3.935-3.323,5.137-5.639a58.414,58.414,0,0,1,3.616-6.932c1.5-2.125,3.755-3.9,6.3-3.934-1.733,2.534-2.049,6.216-.238,8.691a7.955,7.955,0,0,0,5.628,2.938,23.141,23.141,0,0,0,6.45-.51c1.444-.252,3.143-.714,3.621-2.141.469-1.4-.536-2.812-.966-4.224a5.614,5.614,0,0,1,3.538-6.769l-.217-.216c2.207.317,4.85.023,6.026-1.928C258.422,237.582,257.069,234.613,254.961,233.363Z" fill="#2f2e41"/></g></svg>
