<svg viewBox="0 0 219.17 162.84" xmlns="http://www.w3.org/2000/svg"><g transform="translate(0)"><path transform="translate(-316.87 -502.44)" d="m316.87 664.8a14.036 14.036 0 0 1 28.072 0" fill="#f2f2f2"/><path transform="translate(-339.21 -512.06)" d="M353.249,674.42a.379.379,0,0,1-.379-.379v-7.4a.379.379,0,0,1,.759,0v7.4a.379.379,0,0,1-.379.379Z" fill="#ccc"/><path transform="translate(-331.77 -513.61)" d="M345.8,673.43a.378.378,0,0,1-.247-.091L341,669.431a.379.379,0,0,1,.494-.576l4.552,3.907a.379.379,0,0,1-.247.667Z" fill="#ccc"/><path transform="translate(-387.62 -502.44)" d="m430.87 664.8a14.036 14.036 0 0 1 28.072 0" fill="#f2f2f2"/><path transform="translate(-409.97 -512.06)" d="M467.25,674.42a.379.379,0,0,1-.379-.379v-7.4a.379.379,0,0,1,.759,0v7.4A.379.379,0,0,1,467.25,674.42Z" fill="#ccc"/><path transform="translate(-402.52 -513.61)" d="M459.8,673.43a.378.378,0,0,1-.247-.091L455,669.431a.379.379,0,1,1,.494-.576l4.552,3.907a.379.379,0,0,1-.247.667Z" fill="#ccc"/><path transform="translate(-469.82 -345.89)" d="m568.36 440.21a4.075 4.075 0 0 0 2.824-5.574l15.023-33.941-8.594-2.165-12.064 34.043a4.1 4.1 0 0 0 2.812 7.636z" fill="#a0616a"/><path transform="translate(-484.84 -338.73)" d="m596.91 404.16-8.358-3.912a1.827 1.827 0 0 1-0.749-2.664l5.08-7.672a5.075 5.075 0 1 1 9.18 4.33l-2.627 8.787a1.827 1.827 0 0 1-2.525 1.131z" fill="#fbd45c"/><path transform="translate(-452.21 -354.91)" d="M535.228,415.969l9.215,6.524a.692.692,0,0,0,.812,0l2.49-1.87a.683.683,0,0,0,.045-1.067l-7.091-6.323a.7.7,0,0,0-.692-.134l-4.614,1.651a.7.7,0,0,0-.165,1.218Z" fill="#3f3d56"/><path transform="translate(-453.89 -355.68)" d="M537.742,416.237l8.3,5.88a.244.244,0,0,0,.29,0l2.24-1.682a.236.236,0,0,0,.02-.371l-6.4-5.7a.249.249,0,0,0-.246-.046L537.8,415.8a.248.248,0,0,0-.056.432Z" fill="#fff"/><path transform="translate(-219.41 -278.65)" d="m336.01 436.98h-4.651l-2.212-17.939h6.864z" fill="#a0616a"/><path transform="translate(-485.04 -516.32)" d="m602.83 679.16h-15v-0.19a5.837 5.837 0 0 1 5.837-5.837h9.159z" fill="#2f2e41"/><path transform="translate(-244.85 -278.65)" d="m377.01 436.98h-4.651l-2.212-17.939h6.864z" fill="#a0616a"/><path transform="translate(-510.49 -516.32)" d="m643.83 679.16h-15v-0.19a5.837 5.837 0 0 1 5.837-5.837h9.159z" fill="#2f2e41"/><path transform="translate(-485.82 -376.72)" d="M617.759,530.056q-.063,0-.127,0l-5.348-.4a1.717,1.717,0,0,1-1.542-1.339l-9.287-50.974a.569.569,0,0,0-1.123.166l3.3,50.223a1.707,1.707,0,0,1-1.7,1.841h-4.073a1.707,1.707,0,0,1-1.59-1.085c-10.243-26.822-6.533-79.378-6.5-79.907l.379-.379h0l20.4,3.523.043.042c6.97,5.12,9.987,65.078,8.879,76.483a2.043,2.043,0,0,1-.5,1.315A1.709,1.709,0,0,1,617.759,530.056Z" fill="#2f2e41"/><circle transform="translate(96.979 22.105)" cx="9.317" cy="9.317" r="9.317" fill="#a0616a"/><path transform="translate(-483.8 -324.8)" d="M611.462,408.46a1.413,1.413,0,0,1-.282-.028l-23.929-3.07a2,2,0,0,1-1.422-2.127l2.29-12.642c-3.035-3.794-.167-13.591,1.687-16.068l-.717-1.941a2.409,2.409,0,0,1-.032-1.566,1.921,1.921,0,0,1,.9-1.134l9.711-5.16a1.61,1.61,0,0,1,2.252,1.043l1.9,5.154-.029.015c4.56,2.444,8.6,4.862,5.566,17.76l3.8,17.813a2.208,2.208,0,0,1-.633,1.5,1.545,1.545,0,0,1-1.073.454Z" fill="#fbd45c"/><path transform="translate(-459.55 -354.4)" d="M553.456,417.181a3.988,3.988,0,0,1,.423.466l18.769-1.3,2.013-4.1,6.589,2.229-2.859,7.61a3.035,3.035,0,0,1-3.07,1.959l-21.342-1.619a3.982,3.982,0,1,1-.523-5.245Z" fill="#a0616a"/><path transform="translate(-501.14 -339.48)" d="m613.89 400.52a1.705 1.705 0 0 1 0.055-1.42l3.87-7.644a4.741 4.741 0 1 1 9.005 2.969l-1.491 8.465a1.707 1.707 0 0 1-2.22 1.324l-8.18-2.723a1.705 1.705 0 0 1-1.039-0.971z" fill="#fbd45c"/><path transform="translate(-447.54 -339.39)" d="M531,394.189a.416.416,0,0,1-.567,0l-.218-.2c-1.782-1.635-2.811-2.7-2.811-4.022a1.765,1.765,0,0,1,1.756-1.915,2.023,2.023,0,0,0,3.114,0,1.763,1.763,0,0,1,1.756,1.915c0,1.322-1.029,2.384-2.811,4.022Z" fill="#ff6584"/><path transform="translate(-419.44 -284.82)" d="M491.3,325.267a.8.8,0,0,1-1.087,0l-.417-.377c-3.415-3.133-5.387-5.169-5.387-7.707a3.382,3.382,0,0,1,3.364-3.67,3.928,3.928,0,0,1,2.984,1.4,3.922,3.922,0,0,1,2.982-1.4,3.377,3.377,0,0,1,3.364,3.67c0,2.533-1.972,4.568-5.387,7.707Z" fill="#ff6584"/><path transform="translate(-416.85 -210.8)" d="m489.36 226.07a1.036 1.036 0 0 1-1.412 0l-0.542-0.49c-4.435-4.069-7-6.713-7-10.01 0-2.689 1.7-4.767 4.37-4.767a5.1 5.1 0 0 1 3.876 1.819 5.1 5.1 0 0 1 3.873-1.819c2.672 0 4.37 2.071 4.37 4.767 0 3.289-2.561 5.933-7 10.01z" fill="#ff6584"/><ellipse transform="translate(103.94 8.891)" cx="7.587" cy="7.587" rx="7.587" ry="7.587" fill="#2f2e41"/><path transform="translate(-470.35 -291.18)" d="m567.82 323.75a3.971 3.971 0 0 1-2.2-0.184 2.608 2.608 0 0 1-1.3-1.967c-1.414-9.392 6.573-8.62 7.518-9.027a10.353 10.353 0 0 0 1.67-1.219 7.809 7.809 0 0 1 4.364-0.96 12.581 12.581 0 0 1 5.3 0.648 7.942 7.942 0 0 1 3.524 3.249 16.4 16.4 0 0 1 1.748 4.527 11.3 11.3 0 0 1 0.3 5.549 6.862 6.862 0 0 1-6.229 4.992 5.134 5.134 0 0 0-2.71-5.624 7.831 7.831 0 0 0-5.165-0.615 22.74 22.74 0 0 1-3.426 0.427c-1.131 0.042-2.487 0.108-3.394 0.204z" fill="#2f2e41"/><path transform="translate(-566.9 -259.76)" d="m786.06 321.52c0-18.309-14.852-61.755-33.174-61.755s-33.174 43.446-33.174 61.755a33.174 33.174 0 0 0 66.347 0z" fill="#f2f2f2"/><path transform="translate(-620.55 -353.04)" d="M806.543,515.573a.379.379,0,0,1-.379-.379V410.44a.379.379,0,0,1,.759,0V515.194a.379.379,0,0,1-.379.379Z" fill="#ccc"/><path transform="translate(-589.34 -340.1)" d="M775.328,411.962a.378.378,0,0,1-.287-.131l-19.079-22a.379.379,0,0,1,.573-.5l19.079,22a.379.379,0,0,1-.286.628Z" fill="#ccc"/><path transform="translate(-620.55 -379.13)" d="M806.543,463.7a.379.379,0,0,1-.268-.648l10.841-10.841a.379.379,0,0,1,.536.536l-10.841,10.841A.378.378,0,0,1,806.543,463.7Z" fill="#ccc"/><path transform="translate(-620.55 -447.41)" d="M806.543,573.7a.379.379,0,0,1-.268-.648l10.841-10.841a.379.379,0,1,1,.536.536l-10.841,10.841A.378.378,0,0,1,806.543,573.7Z" fill="#ccc"/></g></svg>
