<svg xmlns="http://www.w3.org/2000/svg" width="22.976" height="20.275" viewBox="0 0 22.976 20.275"><g transform="translate(-0.487 -2.025)"><path d="M20.8,4.6a5.616,5.616,0,0,0-7.8,0h0L12,5.7,10.9,4.6a5.616,5.616,0,0,0-7.8,0,5.522,5.522,0,0,0,0,7.8l1.1,1.1L12,21.3l7.8-7.8,1.1-1.1a5.524,5.524,0,0,0-.1-7.8Z" fill="none" stroke="#000" stroke-linecap="round" stroke-linejoin="round" stroke-width="2"/><path d="M12,5.7,10.4,7.6l2.8,2-2.8,2,2.8,2-2.8,2L13.8,19" fill="none" stroke="#000" stroke-miterlimit="10" stroke-width="2"/></g></svg>