<svg viewBox="0 0 25.214 23.62" xmlns="http://www.w3.org/2000/svg">
  <g transform="translate(-121.76 -141.11)">
    <g transform="translate(-124.07 -272.61)">
      <path d="m255.21 426.68-0.05127 3.0518e-4c-1.2881 0-2.3361 1.048-2.3361 2.3362 0 1.0374 1.0458 2.5148 2.8694 4.0534 1.0452 0.88184 2.1008 1.5845 2.7808 2.0069 0.68051-0.41885 1.7303-1.1111 2.7573-1.971 1.8341-1.5359 2.886-3.0264 2.886-4.0886-4.2725e-4 -1.2885-1.0488-2.3368-2.3369-2.3368l-0.023621-6.1035e-5c-0.67905 0-1.3193 0.29788-1.7566 0.81729l-1.5397 1.8288-1.5282-1.8384c-0.42682-0.51346-1.0541-0.80792-1.7209-0.80792m0-2c1.2587 0 2.4533 0.5603 3.2589 1.5294 0.82153-0.97577 2.0323-1.5357 3.3102-1.5291 2.3947 0 4.3362 1.9415 4.3369 4.3362 0 4.1622-7.1629 8.1111-7.4531 8.2662-0.11703 0.0784-0.27005 0.078461-0.38721 0-0.29059-0.15503-7.4531-4.1623-7.4531-8.2662 0-2.3947 1.9414-4.3362 4.3361-4.3362 0.017151-2.1362e-4 0.034149-3.0518e-4 0.05127-3.0518e-4z" fill="currentcolor"/>
    </g>
    <g transform="translate(0 -147.88)">
      <path d="m124.56 297.06c-0.20837 0.18967-0.47512 0.52969-0.65239 0.991-0.17162 0.44666-0.19637 0.86591-0.064575 1.0942 0.37369 0.64737 0.93726 0.94223 1.3027 0.94223 0.091141 0 0.16708-0.01828 0.23219-0.055878 0.31303-0.18079 0.46867-0.96149 6.8665e-5 -1.7733-0.38931-0.67441-0.65556-1.0216-0.81804-1.1983m0.040703-2.1231c0.96328 0 1.7483 1.003 2.5095 2.3215 0.97613 1.691 0.64844 3.7078-0.73191 4.5051-1.3803 0.79727-3.2912 0.072632-4.2674-1.6184-0.97614-1.691 0.24654-4.1553 1.6273-4.9525 0.30405-0.1756 0.59042-0.25565 0.86255-0.25565z" fill="currentcolor"/>
    </g>
    <g transform="translate(-137.8)">
      <path d="m268.69 143.11c-0.0035095 0-0.0092468 1.3733e-4 -0.016876 8.0872e-4 -0.18698 0.016342-0.60831 0.23935-1.0026 0.78673-0.40707 0.56512-0.62009 1.2454-0.56982 1.8197 0.1012 1.1566 0.81488 1.9336 1.418 1.9336 0.021454 0 0.043243-9.4604e-4 0.06485-0.0028534 0.36536-0.031952 0.62549-0.3389 0.74805-0.51903 0.293-0.43069 0.43036-1.0284 0.37683-1.6399-0.066589-0.7612-0.29535-1.5026-0.61188-1.9833-0.17972-0.27293-0.34592-0.39569-0.40652-0.39569m0-2c1.7123 0 2.8226 2.0539 3.0108 4.2047 0.19516 2.2297-1.1226 4.1665-2.943 4.3257-1.8211 0.15938-3.4544-1.5191-3.6495-3.7488-0.19516-2.2297 1.5701-4.614 3.3906-4.7732 0.064453-0.0056458 0.1283-0.0084229 0.19113-0.0084229z" fill="currentcolor"/>
    </g>
    <g transform="translate(-324.52 -1.095)">
      <path d="m462.53 148.79c0.59039 0 1.3177-0.79411 1.4175-1.9336 0.050232-0.57426-0.16278-1.2545-0.56985-1.8195-0.39435-0.54742-0.81589-0.77055-1.003-0.78696-0.0061035-5.3406e-4 -0.01178-8.0872e-4 -0.016876-8.0872e-4 -0.060455 0-0.22644 0.12277-0.40613 0.39572-0.31656 0.48077-0.54532 1.2222-0.61194 1.9834-0.053497 0.61148 0.083862 1.2092 0.37686 1.6399 0.12256 0.18015 0.38272 0.48711 0.74847 0.5191 0.021973 0.0019073 0.043243 0.0028534 0.065002 0.0028534m0 2c-0.079498 0-0.1593-0.0034485-0.23962-0.010498-1.8205-0.15921-3.1382-2.096-2.9431-4.3257 0.19516-2.2297 1.381-4.3555 3.202-4.1963 1.8205 0.15959 3.5857 2.5435 3.3906 4.7732-0.18655 2.1313-1.6878 3.7593-3.4099 3.7593z" fill="currentcolor"/>
    </g>
    <g transform="translate(-480.17 -147.87)">
      <path d="m623.76 300.07c0.36548 0 0.92902-0.29486 1.3027-0.94226 0.13177-0.22827 0.10706-0.64758-0.064575-1.0943-0.17725-0.4613-0.44391-0.80127-0.65216-0.99088-0.16248 0.17667-0.42889 0.52396-0.81848 1.1985-0.23889 0.4137-0.33942 0.87546-0.27582 1.2668 0.023193 0.14291 0.089905 0.39868 0.276 0.5061 0.065125 0.037628 0.14111 0.055939 0.2323 0.055939m0 2c-0.43073 0-0.85181-0.10413-1.2325-0.32401-1.3807-0.79721-1.7084-2.814-0.73187-4.505 0.97662-1.691 1.9918-2.8631 3.3724-2.0659 1.3804 0.79718 2.603 3.2615 1.6269 4.9525-0.70685 1.2246-1.904 1.9424-3.0349 1.9424z" fill="currentcolor"/>
    </g>
  </g>
</svg>
