<svg xmlns="http://www.w3.org/2000/svg" width="25.214" height="23.62" viewBox="0 0 25.214 23.62"><g transform="translate(-121.758 -141.112)" opacity="0.999"><g transform="translate(-124.074 -272.612)" fill="none"><path d="M261.776,424.682h0a4.3,4.3,0,0,0-3.31,1.529,4.238,4.238,0,0,0-3.31-1.529,4.336,4.336,0,0,0-4.336,4.336c0,4.1,7.163,8.111,7.453,8.266a.348.348,0,0,0,.387,0c.29-.155,7.453-4.1,7.453-8.266A4.337,4.337,0,0,0,261.776,424.682Z" stroke="none"/><path d="M 255.2073669433594 426.6819458007812 L 255.1560974121094 426.6822509765625 C 253.8679504394531 426.6822509765625 252.8199768066406 427.7302551269531 252.8199768066406 429.0184326171875 C 252.8199768066406 430.0558166503906 253.8658142089844 431.533203125 255.6893310546875 433.0718078613281 C 256.7344970703125 433.9536437988281 257.7901611328125 434.6562805175781 258.4700927734375 435.0787353515625 C 259.1506042480469 434.6598815917969 260.2004089355469 433.9676818847656 261.2273864746094 433.1076965332031 C 263.0614624023438 431.57177734375 264.1134033203125 430.081298828125 264.1134033203125 429.0190734863281 C 264.1129760742188 427.7305297851562 263.0646362304688 426.6822509765625 261.7764892578125 426.6822509765625 L 261.7528686523438 426.6821899414062 C 261.0738220214844 426.6821899414062 260.4335632324219 426.9800720214844 259.9962463378906 427.4994812011719 L 258.4565124511719 429.3282470703125 L 256.9283142089844 427.4898681640625 C 256.5014953613281 426.9764099121094 255.8742370605469 426.6819458007812 255.2073669433594 426.6819458007812 M 255.2073669433594 424.6819458007812 C 256.4660949707031 424.6819458007812 257.6607055664062 425.2422485351562 258.46630859375 426.2113647460938 C 259.287841796875 425.235595703125 260.4985961914062 424.6756896972656 261.7764892578125 424.6822509765625 C 264.1712036132812 424.6822509765625 266.1126403808594 426.6237182617188 266.1134033203125 429.0184326171875 C 266.1134033203125 433.1806640625 258.9505310058594 437.1295776367188 258.6602783203125 437.2846069335938 C 258.5432434082031 437.3630065917969 258.3902282714844 437.3630676269531 258.2730712890625 437.2846069335938 C 257.9824829101562 437.1295776367188 250.8199768066406 433.122314453125 250.8199768066406 429.0184326171875 C 250.8199768066406 426.6237182617188 252.7614135742188 424.6822509765625 255.1560974121094 424.6822509765625 C 255.1732482910156 424.6820373535156 255.1902465820312 424.6819458007812 255.2073669433594 424.6819458007812 Z" stroke="none" fill="#000"/></g><g transform="translate(0 -147.878)" fill="none"><path d="M127.109,297.255c.976,1.691.648,3.708-.732,4.505s-3.291.073-4.267-1.618.247-4.155,1.627-4.953S126.133,295.565,127.109,297.255Z" stroke="none"/><path d="M 124.5592193603516 297.0570983886719 C 124.3508529663086 297.2467651367188 124.084098815918 297.5867919921875 123.9068298339844 298.048095703125 C 123.7352142333984 298.4947509765625 123.7104644775391 298.9140014648438 123.8422546386719 299.1423034667969 C 124.2159423828125 299.7896728515625 124.7795104980469 300.0845336914062 125.1450042724609 300.0845336914062 C 125.2361450195312 300.0845336914062 125.3120880126953 300.0662536621094 125.3771896362305 300.0286560058594 C 125.6902236938477 299.8478698730469 125.8458633422852 299.0671691894531 125.3772583007812 298.25537109375 C 124.9879531860352 297.5809631347656 124.7216949462891 297.2337646484375 124.5592193603516 297.0570983886719 M 124.5999221801758 294.9339904785156 C 125.5632019042969 294.9339904785156 126.3482666015625 295.93701171875 127.1093826293945 297.2554931640625 C 128.0855102539062 298.946533203125 127.7578201293945 300.9633178710938 126.3774719238281 301.7605590820312 C 124.9971389770508 302.5578308105469 123.0862350463867 301.8331909179688 122.110107421875 300.1421508789062 C 121.1339721679688 298.4511413574219 122.3566513061523 295.9868774414062 123.7373733520508 295.1896362304688 C 124.0414276123047 295.0140380859375 124.3277893066406 294.9339904785156 124.5999221801758 294.9339904785156 Z" stroke="none" fill="#000"/></g><g transform="translate(-137.799 0)" fill="none"><path d="M271.7,145.317c.2,2.23-1.123,4.167-2.943,4.326s-3.454-1.519-3.649-3.749,1.57-4.614,3.391-4.773S271.509,143.087,271.7,145.317Z" stroke="none"/><path d="M 268.6931457519531 143.1122589111328 C 268.6896362304688 143.1122589111328 268.6838989257812 143.1123962402344 268.67626953125 143.1130676269531 C 268.4892883300781 143.1294097900391 268.0679626464844 143.3524169921875 267.6736755371094 143.8997955322266 C 267.2666015625 144.4649200439453 267.0535888671875 145.1451873779297 267.1038513183594 145.7195129394531 C 267.2050476074219 146.8761291503906 267.9187316894531 147.6530914306641 268.5218200683594 147.6530914306641 C 268.5432739257812 147.6530914306641 268.5650634765625 147.6521453857422 268.586669921875 147.6502380371094 C 268.9520263671875 147.6182861328125 269.212158203125 147.3113403320312 269.334716796875 147.1312103271484 C 269.6277160644531 146.7005157470703 269.7650756835938 146.1027984619141 269.7115478515625 145.4912872314453 C 269.6449584960938 144.7300872802734 269.4161987304688 143.9886474609375 269.0996704101562 143.5079498291016 C 268.9199523925781 143.2350158691406 268.7537536621094 143.1122589111328 268.6931457519531 143.1122589111328 M 268.6931457519531 141.1122436523438 C 270.4054260253906 141.1122436523438 271.5157165527344 143.1661376953125 271.7039489746094 145.3169250488281 C 271.8991088867188 147.5466461181641 270.5813903808594 149.4834289550781 268.7609252929688 149.6426391601562 C 266.9398498535156 149.8020172119141 265.3065490722656 148.1235809326172 265.1114501953125 145.8938751220703 C 264.9162902832031 143.6641540527344 266.6815185546875 141.2798767089844 268.5020141601562 141.1206665039062 C 268.5664672851562 141.1150207519531 268.6303100585938 141.1122436523438 268.6931457519531 141.1122436523438 Z" stroke="none" fill="#000"/></g><g transform="translate(-324.521 -1.095)" fill="none"><path d="M465.936,147.033c-.2,2.23-1.829,3.908-3.649,3.749s-3.138-2.1-2.943-4.326,1.382-4.356,3.2-4.2S466.131,144.8,465.936,147.033Z" stroke="none"/><path d="M 462.5260620117188 148.7921905517578 C 463.116455078125 148.7921905517578 463.8438110351562 147.9980773925781 463.9435424804688 146.8585815429688 C 463.9937744140625 146.2843170166016 463.78076171875 145.6041107177734 463.3736877441406 145.0390319824219 C 462.9793395996094 144.4916076660156 462.5578002929688 144.2684783935547 462.3706665039062 144.2520751953125 C 462.3645629882812 144.2515411376953 462.35888671875 144.2512664794922 462.3537902832031 144.2512664794922 C 462.2933349609375 144.2512664794922 462.1273498535156 144.3740386962891 461.9476623535156 144.6469879150391 C 461.631103515625 145.1277618408203 461.40234375 145.8692169189453 461.3357238769531 146.63037109375 C 461.2822265625 147.2418518066406 461.4195861816406 147.8395538330078 461.7125854492188 148.2702331542969 C 461.8351440429688 148.4503784179688 462.0953063964844 148.7573394775391 462.4610595703125 148.7893371582031 C 462.4830322265625 148.7912445068359 462.5043029785156 148.7921905517578 462.5260620117188 148.7921905517578 M 462.5260620117188 150.7921905517578 C 462.4465637207031 150.7921905517578 462.3667602539062 150.7887420654297 462.2864379882812 150.7816925048828 C 460.4659423828125 150.6224822998047 459.148193359375 148.6856842041016 459.3433532714844 146.4559783935547 C 459.5385131835938 144.2262878417969 460.7243347167969 142.1004638671875 462.5453491210938 142.2597198486328 C 464.3658142089844 142.4193115234375 466.1310424804688 144.8032073974609 465.9359130859375 147.0329284667969 C 465.7493591308594 149.1642608642578 464.2481384277344 150.7921905517578 462.5260620117188 150.7921905517578 Z" stroke="none" fill="#000"/></g><g transform="translate(-480.169 -147.868)" fill="none"><path d="M626.79,300.132c-.976,1.691-2.887,2.416-4.267,1.618s-1.708-2.814-.732-4.505,1.992-2.863,3.372-2.066S627.766,298.441,626.79,300.132Z" stroke="none"/><path d="M 623.7553100585938 300.0744934082031 C 624.1207885742188 300.0744934082031 624.684326171875 299.7796325683594 625.0580444335938 299.1322326660156 C 625.1898193359375 298.9039611816406 625.1651000976562 298.4846496582031 624.9934692382812 298.0379638671875 C 624.8162231445312 297.57666015625 624.549560546875 297.2366943359375 624.34130859375 297.0470886230469 C 624.1788330078125 297.2237548828125 623.9124145507812 297.571044921875 623.5228271484375 298.2456359863281 C 623.283935546875 298.6593322753906 623.1834106445312 299.12109375 623.2470092773438 299.512451171875 C 623.2702026367188 299.6553649902344 623.3369140625 299.9111328125 623.5230102539062 300.0185546875 C 623.588134765625 300.0561828613281 623.6641235351562 300.0744934082031 623.7553100585938 300.0744934082031 M 623.7553100585938 302.0744934082031 C 623.3245849609375 302.0744934082031 622.9035034179688 301.9703674316406 622.5227661132812 301.75048828125 C 621.1420288085938 300.9532775878906 620.8143920898438 298.9364929199219 621.7908935546875 297.2454833984375 C 622.7675170898438 295.554443359375 623.7826538085938 294.3824157714844 625.1632690429688 295.1796264648438 C 626.5436401367188 295.976806640625 627.7662963867188 298.4411010742188 626.7901611328125 300.1321105957031 C 626.0833129882812 301.3567199707031 624.8861694335938 302.0744934082031 623.7553100585938 302.0744934082031 Z" stroke="none" fill="#000"/></g></g></svg>